<?xml version="1.0" encoding="utf-8"?>
<!-- Generator: Adobe Illustrator 23.0.3, SVG Export Plug-In . SVG Version: 6.00 Build 0)  -->
<svg version="1.1" id="Layer_1" xmlns="http://www.w3.org/2000/svg" xmlns:xlink="http://www.w3.org/1999/xlink" x="0px" y="0px"
	 viewBox="0 0 354.45 475.15" style="enable-background:new 0 0 354.45 475.15;" xml:space="preserve">
<style type="text/css">
	.st0{fill:#ED1C24;}
	.st1{fill:#FFFFFF;}
	.st2{fill:#FF8300;}
</style>
<g>
	<g>
		<g>
			<polygon points="106.58,280.23 136.06,280.23 136.06,247.46 103.29,247.46 103.29,275.43 38.05,206.81 100.73,142.42 
				100.73,165.5 134.24,165.5 134.24,133.09 106.6,133.09 176.73,66.76 243.91,133.09 217.65,133.09 217.65,165.14 250.79,165.14 
				250.79,140.34 316.4,206.79 250.06,277.02 250.06,247.09 217.47,247.09 217.47,279.87 247.82,279.87 177.22,346.88 			"/>
			<polygon class="st0" points="116.22,129.26 176.68,72.08 234.59,129.26 213.83,129.26 213.83,168.97 254.62,168.97 
				254.62,149.66 311.07,206.84 253.89,267.39 253.89,243.27 213.64,243.27 213.64,283.69 238.22,283.69 177.21,341.61 
				116.22,284.06 139.88,284.06 139.88,243.63 99.46,243.63 99.46,265.85 43.37,206.84 96.91,151.85 96.91,169.33 138.07,169.33 
				138.07,129.26 			"/>
			<g>
				<g>
					<path class="st1" d="M187.62,176.34h-16.21l-16.2,60.1h15.91l2.95-12.08h11.78l2.36,12.08h16.21L187.62,176.34z M175.25,213.75
						l4.57-21.8l4.57,21.8H175.25z"/>
					<path d="M206.37,237.92h-19.39l-2.36-12.08h-9.39l-2.95,12.08h-19.01l17-63.07h18.47L206.37,237.92z M189.43,234.95h13.02
						l-15.96-57.13h-13.94l-15.4,57.13h12.8l2.95-12.08h14.17L189.43,234.95z M186.21,215.24h-12.79l6.4-30.54L186.21,215.24z
						 M177.07,212.27h5.47l-2.74-13.07L177.07,212.27z"/>
				</g>
				<g>
					<path class="st1" d="M137.65,176.34h-16.21l-16.2,60.1h15.91l2.95-12.08h11.78l2.36,12.08h16.21L137.65,176.34z M125.27,213.75
						l4.57-21.8l4.57,21.8H125.27z"/>
					<path d="M156.4,237.92h-19.39l-2.36-12.08h-9.39l-2.95,12.08H103.3l17-63.07h18.47L156.4,237.92z M139.46,234.95h13.02
						l-15.96-57.13h-13.94l-15.4,57.13h12.8l2.95-12.08h14.17L139.46,234.95z M136.24,215.24h-12.79l6.4-30.54L136.24,215.24z
						 M127.1,212.27h5.47l-2.74-13.07L127.1,212.27z"/>
				</g>
				<g>
					<path class="st1" d="M246.95,193.13c0,0,0.72-16.79-14.9-16.79h-26.22v60.1h13.55v-22.69c0,0,10.9-2.06,10.9,7.95v14.73h16.5
						c0,0,2.36-25.89-10.61-29.59C236.18,206.84,246.95,204.03,246.95,193.13z M231.46,195.34c0,9.87-12.37,7.51-12.37,7.51v-15.03
						C233.82,187.83,231.46,195.34,231.46,195.34z"/>
					<path d="M248.14,237.92H228.8v-16.22c0-2.31-0.66-4.03-1.96-5.12c-1.78-1.49-4.44-1.59-5.97-1.51v22.84h-16.52v-63.07h27.71
						c4.83,0,8.71,1.5,11.55,4.45c5.02,5.24,4.86,13.18,4.84,13.85c-0.01,7.8-5.08,11.87-8.59,13.75
						c10.36,6.8,8.51,28.66,8.42,29.67L248.14,237.92z M231.77,234.95h13.62c0.25-5.21,0.42-23.82-9.62-26.68l-5.23-1.49l5.26-1.37
						c0.39-0.1,9.66-2.69,9.66-12.28l0-0.06c0-0.07,0.24-7.29-4.03-11.72c-2.25-2.34-5.41-3.53-9.39-3.53h-24.73v57.13h10.58v-22.43
						l1.21-0.23c0.24-0.05,5.9-1.07,9.62,2c2.02,1.67,3.05,4.17,3.05,7.41V234.95z M222.11,204.58c-1.82,0-3.17-0.25-3.3-0.27
						l-1.21-0.23v-17.74h1.49c6.44,0,10.74,1.4,12.78,4.18c1.37,1.86,1.34,3.93,1.08,5.03c-0.04,2.87-1.03,5.12-2.93,6.7
						C227.7,204.16,224.5,204.58,222.11,204.58z M220.58,201.54c1.85,0.16,5.4,0.19,7.56-1.6c1.24-1.03,1.85-2.54,1.85-4.6
						l0.06-0.43c0.03-0.11,0.35-1.42-0.6-2.68c-0.93-1.23-3.23-2.68-8.86-2.89V201.54z"/>
				</g>
			</g>
		</g>
	</g>
	<path class="st2" d="M64.23,405.88c0,1.16-0.45,1.61-1.61,1.61h-7.96c-1.22,0-1.74-0.32-1.74-1.61v-42.25
		c0.06-1.09,0.32-1.48,1.54-1.48h8.28c1.22-0.06,1.48,0.45,1.48,1.48V405.88z"/>
	<path class="st2" d="M99.16,405.95c0,1.22-0.32,1.61-1.67,1.61h-7.13c-1.03,0-1.41-0.39-1.41-1.54v-21.96c0-2.05,0-3.08-0.96-4.11
		c-0.83-0.77-2.12-1.16-3.28-1.16c-4.11,0-4.17,3.34-4.17,5.27v22.09c0,1.22-0.58,1.35-1.67,1.41h-7.13c-1.16,0-1.41-0.45-1.48-1.61
		v-25.62c0-2.31,0-4.43,6.23-5.97c2.76-0.71,6.16-1.03,8.73-1.03c7.06,0,9.44,1.48,10.27,2.05c3.59,2.25,3.66,5.27,3.66,7.13V405.95
		z"/>
	<path class="st2" d="M121.19,387.9c2.51,1.22,7.32,3.66,7.32,9.95c0,4.43-2.57,10.53-12.14,10.53c-9.31,0-12.65-5.14-12.65-8.16
		c0-2.31,1.54-4.3,4.04-4.3c0.96,0,2.44,0.32,3.85,2.25c0.19,0.32,1.22,1.73,1.41,2.05c0.45,0.64,1.54,2.12,3.28,2.12
		c1.48,0,2.95-1.16,2.95-3.15c0-2.57-1.8-3.47-5.08-5.07l-2.76-1.35c-2.31-1.09-7.06-3.4-7.06-9.57c0-2.25,0.96-9.89,12.01-9.89
		c8.22,0,11.11,4.24,11.11,7.19c0,1.93-1.22,3.85-3.72,3.85c-2.44,0-3.34-1.54-4.24-3.08c-0.71-1.22-1.67-2.83-3.53-2.83
		c-1.93,0-2.83,1.61-2.83,3.08c0,2.76,2.51,3.85,4.56,4.75L121.19,387.9z"/>
	<path class="st2" d="M160.88,399.59c0,2.63-0.06,4.36-2.31,6.04c-1.86,1.35-6.1,2.76-11.75,2.76c-11.43,0-13.87-4.82-13.87-10.66
		v-22.28c0-1.16,0.71-1.22,1.41-1.22h7.26c0.84,0,1.61,0.06,1.61,1.35v21.7c0,1.61,0.06,4.31,3.85,4.31c3.47,0,3.53-2.31,3.53-3.85
		v-22.09c0-0.96,0.19-1.41,1.28-1.41h7.51c0.83,0,1.48,0.13,1.48,1.29V399.59z"/>
	<path class="st2" d="M176.88,406.08c0,1.15-0.39,1.41-1.41,1.41h-7.38c-1.16,0-1.48-0.26-1.48-1.48v-26.65
		c0-2.12,0.39-2.89,1.86-3.66c3.66-1.93,9.63-2.38,12.65-2.38c1.73,0,8.48,0,8.48,5.91c0,2.31-1.41,4.17-3.79,4.17
		c-2.25,0-2.89-1.48-3.6-3.08c-0.51-1.09-1.09-1.99-2.63-1.99c-2.63,0-2.7,1.73-2.7,3.28V406.08z"/>
	<path class="st2" d="M207.32,391.24c-3.53,1.09-7.06,2.18-7.06,6.87c0,3.53,2.18,4.88,4.05,4.88c2.95,0,3.02-2.5,3.02-3.98V391.24z
		 M216.89,400.62c0,1.41-0.06,3.02-1.03,4.24c-1.09,1.48-4.75,3.53-11.69,3.53c-2.7,0-13.74-0.06-13.74-9.38
		c0-8.41,8.54-10.34,16.89-12.2v-3.34c0-1.99-0.06-4.75-3.08-4.75c-2.38,0-3.15,1.86-3.53,2.95c-0.71,1.8-1.41,3.66-4.36,3.66
		c-2.83,0-4.37-1.99-4.37-4.11c0-3.59,4.24-7.9,14-7.9c2.31,0,5.27,0.26,7.39,1.54c3.47,2.18,3.53,5.78,3.53,7.96V400.62z"/>
	<path class="st2" d="M251.7,405.95c0,1.22-0.32,1.61-1.67,1.61h-7.13c-1.03,0-1.41-0.39-1.41-1.54v-21.96c0-2.05,0-3.08-0.96-4.11
		c-0.83-0.77-2.12-1.16-3.28-1.16c-4.11,0-4.17,3.34-4.17,5.27v22.09c0,1.22-0.58,1.35-1.67,1.41h-7.13c-1.16,0-1.41-0.45-1.48-1.61
		v-25.62c0-2.31,0-4.43,6.23-5.97c2.76-0.71,6.16-1.03,8.73-1.03c7.06,0,9.44,1.48,10.28,2.05c3.59,2.25,3.66,5.27,3.66,7.13V405.95
		z"/>
	<path class="st2" d="M269.43,379.68c-3.15,0-4.82,4.37-4.82,8.28c0,4.82,2.44,11.18,7.26,11.18c3.08,0,4.37-1.99,5.33-3.47
		c0.71-1.02,1.22-1.8,2.25-1.8c0.9,0,2.12,0.64,2.12,2.89c0,4.56-3.47,11.62-12.14,11.62c-9.7,0-13.36-9.31-13.36-17.34
		c0-6.42,2.63-17.72,14.7-17.72c7.51,0,10.72,5.01,10.72,8.54c0,2.7-1.93,4.62-4.24,4.62c-1.09,0-2.89-0.45-3.79-2.7
		C272.76,381.93,271.8,379.68,269.43,379.68"/>
	<path class="st2" d="M302.05,385.08c-0.45-5.71-3.79-5.78-4.56-5.78c-3.79,0-5.33,3.6-5.39,7.26L302.05,385.08z M292.74,391.5
		c0.19,0.96,0.39,2.25,1.03,3.47c1.41,2.76,4.05,4.43,7.19,4.43c3.02,0,5.27-1.54,6.55-2.82c1.29-1.41,1.67-1.8,2.57-1.8
		c1.03,0,1.99,0.84,1.99,2.44c0,1.99-2.38,11.17-12.71,11.17c-11.37,0-15.22-8.99-15.22-17.79c0-12.72,8.02-17.34,15.02-17.34
		c10.27,0,12.78,9.51,12.78,12.65c0,2.76-1.6,3.02-2.63,3.21L292.74,391.5z"/>
</g>
</svg>
