<?xml version="1.0" encoding="utf-8"?>
<!-- Generator: Adobe Illustrator 25.2.3, SVG Export Plug-In . SVG Version: 6.00 Build 0)  -->
<svg version="1.1" id="Laag_1" xmlns="http://www.w3.org/2000/svg" xmlns:xlink="http://www.w3.org/1999/xlink" x="0px" y="0px"
	 viewBox="0 0 683 218.4" style="enable-background:new 0 0 683 218.4;" xml:space="preserve">
<style type="text/css">
	.st0{fill:#FFFFFF;}
</style>
<path class="st0" d="M607.8,135.2c13,0,19.1,7,16.4,22.3l-4.5,25.6c-1,5.1-0.4,9-0.4,9h-17.7c0,0-0.6-3.9,0.4-9l4.5-25.4
	c0.9-5.1,1.3-8.8-3.2-8.8c-2.9,0-6.1,1-8.6,3.3l-7,39.9H570l6.1-34.6C576.1,157.5,579.5,133.2,607.8,135.2z"/>
<path class="st0" d="M410.3,138.4H393l0.5-2.4c0.9-5.2-0.1-7.7-7.3-7.7c-6.4,0-9,1.9-10.6,11.3L371,166c-1.7,9.3,3,11.9,9.3,11.9
	c7.9,0,15.8-2.3,21.8-4.9l-1.7,15.1c-5.4,2.8-11.3,5.8-23.3,5.8c-17.4,0-29.2-6.4-25.5-27.2l4.8-27.3c3.5-19.7,14.8-26,30.7-26h1.8
	c14.9,0,24.7,7.3,22.7,19.3L410.3,138.4z"/>
<path class="st0" d="M454.6,201.5c-2.1,11.5-9.1,16.9-21.4,16.9c-3.1,0-8.6-0.4-14.7-1.9l4-12.8c2.4,0.6,7.3,1,9.8,1
	c2.1,0,4-1.3,4.4-3.6l1.7-9.3c-3.5,1.3-6.4,1.9-10.6,1.9c-13.1,0-19.3-7.1-16.6-22.5l4.6-25.9c0.9-5.1,0.3-9.1,0.3-9.1H434
	c0,0,0.6,4-0.3,9.1l-4.6,25.8c-0.9,5.2-1.2,8.9,3.2,8.9c3,0,6.2-1,8.8-3.3l7.1-40.4H466L454.6,201.5z"/>
<path class="st0" d="M512.7,152.8c-4.9-1.9-11.6-4.1-16.7-4.1c-4.3,0-7.2,1.7-8.8,10.4l-1.9,10.7c-1.5,8.8,0.9,10.3,5.2,10.3
	c5.2,0,12.6-2.2,18.3-4.1l-0.1,13c-5.7,2.2-12.6,4.8-19.8,4.8c-13.7,0-24.6-5.7-21.4-24l1.9-10.8c3.2-18.3,14.2-24,27.8-24
	c7.1,0,15.3,2.6,20.1,4.8L512.7,152.8z"/>
<path class="st0" d="M535,183.5c-1,5.1-0.4,9.1-0.4,9.1h-17.9c0,0-0.6-4,0.4-9.1l12.9-73.3h17.9L535,183.5z"/>
<path class="st0" d="M671.8,201c-2.1,11.5-9.1,16.9-21.4,16.9c-3.1,0-8.6-0.4-14.7-1.9l4-12.8c2.4,0.6,7.3,1,9.8,1
	c2.1,0,4-1.3,4.4-3.6l1.7-9.3c-3,1.3-5.4,1.9-8.9,1.9c-13.4,0-20.5-9-17.8-24.2l1.8-10.6c3.2-18.3,14.4-24,28.1-24
	c4.9,0,11.7,0.9,17.3,1.5l7,0.9L671.8,201z M657.2,148.3c-4.3,0-7.1,1.4-8.6,10.2l-1.8,10.6c-1.2,6.6-1.4,10.4,3,10.4
	c2.7,0,5.9-1,8.5-3.3l4.8-27.4C661.1,148.4,658.9,148.3,657.2,148.3z"/>
<g>
	<path class="st0" d="M201,52.2c7.7,2.7,13.6,10.9,14.1,18.8h0.1l8.3-6.9l0.4-0.4c-4.3-0.3-8.1-1.8-11.3-4.8
		c-4.7-4.5-6.3-11.8-4.1-18c2.2-6.4,8.9-11.1,15.7-11.2l13.8-0.1l2.1,0.1l19.6,19.5l1.8,1.8c4.1-0.8,8.4,0.1,12.2,1.7
		c-2.9-18.1-16.6-32.7-34.3-36.9c-0.2,5.7-4.8,10.2-10.5,10.2s-10.3-4.5-10.5-10.2C200.6,20,186.9,34.5,184,52.6
		C189.4,50.3,195.6,50,201,52.2z"/>
	<path class="st0" d="M269.8,60.8c-4.2-2-9.6-1.3-13.3,1.5c-3.1,2.4-5.1,6-5.2,9.7c-0.3,4.2,1.9,9,5.9,11.6c2.5,1.7,5.9,2.4,9,2
		c4.3-6.3,7.1-13.7,7.8-21.8C272.8,62.5,271.4,61.5,269.8,60.8z"/>
	<path class="st0" d="M203.2,80.8c3-3.4,3.6-9.2,1.8-13.1c-1.1-2.9-3.7-5.5-6.4-6.7c-4.4-2.1-10.5-1.4-14.1,2
		c-0.3,0.3-0.6,0.6-0.8,0.8c0.7,8,3.5,15.4,7.8,21.7C195.9,86,200.3,84.3,203.2,80.8z"/>
	<path class="st0" d="M242.8,77.9c-2.1-9.2,1.3-18.1,9.1-23.5l-15.8-15.9h-10.5c-2.5-0.2-4.7,0.6-6.5,2.1c-2.3,2.2-3.2,5.5-2.2,8.5
		c0.9,2.7,3.7,5.1,6.5,5.4h24.9c-4.1,3.5-8.1,7-12.3,10.5l-26.7,22.4c-3,3-6.5,5.2-10.5,6.2c8,7.1,18.5,11.4,30,11.4
		c11.4,0,21.9-4.3,29.9-11.3C251.2,92.1,244.4,85.4,242.8,77.9z"/>
</g>
<path class="st0" d="M228.8,0c-33,0-59.9,26.9-59.9,59.9s26.9,59.9,59.9,59.9s59.9-26.9,59.9-59.9S261.8,0,228.8,0z M228.8,112.1
	c-28.8,0-52.2-23.4-52.2-52.2c0-26.2,19.4-48,44.6-51.7c1.9-2,4.6-3.3,7.6-3.3s5.7,1.3,7.6,3.3c25.2,3.7,44.6,25.5,44.6,51.7
	C281,88.7,257.6,112.1,228.8,112.1z"/>
<path class="st0" d="M245.5,135.1c13,0,19.1,7,16.4,22.3l-4.5,25.6c-1,5.1-0.4,9-0.4,9h-17.7c0,0-0.6-3.9,0.4-9l4.5-25.4
	c0.9-5.1,1.3-8.8-3.2-8.8c-2.9,0-6.1,1-8.6,3.3l-7,39.9h-17.7l6.1-34.6C213.8,157.4,217.2,133.1,245.5,135.1z"/>
<path class="st0" d="M55.7,190.1c-1.9,1.9-5.1,1.9-5.1,1.9h-9.3l-18.1-44l-7.7,44H0l12.8-72.5c0,0,0.5-2.2,2.3-3.7
	c2.1-1.8,4.4-1.9,4.4-1.9h10.9l16.5,45.2l8-45.2h15.5l-12.4,70C58,183.9,57.3,188.6,55.7,190.1z"/>
<path class="st0" d="M85.8,182.9c-1,5.2-0.4,9.1-0.4,9.1H67.5c0,0-0.6-4,0.4-9.1l8.2-47.3H94L85.8,182.9z M94.6,127.1
	c-1,0.7-4.1,0.8-4.1,0.8h-13l2.4-13.4c0,0,0.6-2.7,2-3.9c1.2-1,4.4-1,4.4-1h12.4l-2.6,14.6C96.1,124.1,95.7,126.4,94.6,127.1z"/>
<path class="st0" d="M120.6,127.1c-1,0.7-4.1,0.8-4.1,0.8h-13l2.4-13.4c0,0,0.6-2.7,2-3.9c1.2-1,4.4-1,4.4-1h12.4l-2.6,14.6
	C122.1,124.1,121.7,126.4,120.6,127.1z"/>
<path class="st0" d="M563.1,182.9c-1,5.2-0.4,9.1-0.4,9.1h-17.9c0,0-0.6-4,0.4-9.1l8.2-47.3h17.9L563.1,182.9z M571.9,127.1
	c-1,0.7-4.1,0.8-4.1,0.8h-13l2.4-13.4c0,0,0.6-2.7,2-3.9c1.2-1,4.4-1,4.4-1H576l-2.6,14.6C573.4,124.1,573,126.4,571.9,127.1z"/>
<path class="st0" d="M140.6,182.9c-1,5.2-0.4,9.1-0.4,9.1h-17.9c0,0-0.6-4,0.4-9.1l12.9-73.3h17.9L140.6,182.9z"/>
<path class="st0" d="M197.9,175c-0.5,3.2,0.5,3.9,2.7,3.9c1.9,0,3.5-0.4,3.5-0.4l-2.3,12.8c0,0-5.9,0.8-9.1,0.8
	c-3.5,0-8.1-0.8-9-4.5c-4.3,3.5-9.5,5.7-15.6,5.7c-13.4,0-20.2-9-17.5-24.2l1.8-10.6c3.2-18.3,14.6-24,28.2-24
	c4.9,0,11.6,0.9,17.1,1.5l7,0.9L197.9,175z M178.8,148.2c-4.3,0-7.1,1.4-8.6,10.2l-1.8,10.6c-1.2,6.6-1.4,10.4,3,10.4
	c2.7,0,5.9-1,8.5-3.3l4.8-27.4C182.7,148.4,180.5,148.2,178.8,148.2z"/>
<path class="st0" d="M314.3,175c-0.5,3.2,0.5,3.9,2.7,3.9c1.9,0,3.5-0.4,3.5-0.4l-2.3,12.8c0,0-5.9,0.8-9.1,0.8
	c-3.5,0-8.1-0.8-9-4.5c-4.3,3.5-9.5,5.7-15.6,5.7c-13.4,0-20.2-9-17.5-24.2l1.8-10.6c3.2-18.3,14.4-24,28.1-24
	c2.1,0,4.9,0.1,6.7,0.4l4.5-25.4H326L314.3,175z M295.3,148.2c-4.3,0-7.1,1.4-8.6,10.2l-1.8,10.6c-1.2,6.6-1.4,10.4,3,10.4
	c2.7,0,5.9-1,8.5-3.3l4.8-27.4C299.1,148.4,296.9,148.2,295.3,148.2z"/>
<path class="st0" d="M110.4,200.9c-2.1,11.5-8.8,16.9-21,16.9c-3.1,0-7.7-0.4-13.8-1.9l4-12.8c2.4,0.6,6.4,1,8.9,1
	c2.1,0,3.6-1.3,4-3.6l11.5-64.9h17.9L110.4,200.9z"/>
</svg>
