<svg width="232" height="66" viewBox="0 0 232 66" fill="none" xmlns="http://www.w3.org/2000/svg">
<path d="M92.9739 23.7162L96.0405 28.0419H94.1831L91.5154 24.165L90.8298 28.0419H89.4087L90.942 19.3781H92.3631L91.665 23.3298L95.7289 19.3781H97.5115L92.9739 23.7162ZM99.3915 20.2632C99.1671 20.2632 98.9843 20.1925 98.843 20.0512C98.7017 19.91 98.6311 19.7313 98.6311 19.5152C98.6311 19.2243 98.7391 18.975 98.9552 18.7673C99.1796 18.5512 99.433 18.4431 99.7156 18.4431C99.94 18.4431 100.119 18.5138 100.252 18.6551C100.393 18.7963 100.464 18.975 100.464 19.1911C100.464 19.482 100.356 19.7354 100.139 19.9515C99.9234 20.1593 99.674 20.2632 99.3915 20.2632ZM99.9275 21.1732L98.7183 28.0419H97.2972L98.5064 21.1732H99.9275ZM103.115 28.1541C102.641 28.1541 102.209 28.0751 101.818 27.9172C101.428 27.751 101.12 27.5225 100.896 27.2316C100.671 26.9324 100.559 26.5917 100.559 26.2094C100.559 26.1429 100.568 26.0515 100.584 25.9351H101.968C101.935 26.2509 102.03 26.5127 102.255 26.7205C102.479 26.9283 102.795 27.0321 103.202 27.0321C103.601 27.0321 103.929 26.9615 104.187 26.8202C104.444 26.6789 104.573 26.4712 104.573 26.1969C104.573 25.9642 104.465 25.7772 104.249 25.636C104.041 25.4947 103.705 25.3368 103.239 25.1623C102.799 24.9877 102.442 24.8257 102.167 24.6761C101.893 24.5265 101.656 24.3229 101.457 24.0653C101.257 23.7993 101.158 23.4711 101.158 23.0805C101.158 22.6815 101.27 22.3325 101.494 22.0333C101.727 21.7258 102.047 21.489 102.454 21.3228C102.87 21.1482 103.343 21.061 103.875 21.061C104.357 21.061 104.785 21.1441 105.159 21.3103C105.541 21.4682 105.836 21.6967 106.044 21.9959C106.26 22.2868 106.368 22.6234 106.368 23.0057C106.368 23.122 106.364 23.2093 106.356 23.2674H105.01C105.043 22.9433 104.947 22.6815 104.723 22.4821C104.507 22.2826 104.195 22.1829 103.788 22.1829C103.43 22.1829 103.14 22.2577 102.915 22.4073C102.699 22.5569 102.591 22.7605 102.591 23.0181C102.591 23.2758 102.703 23.4835 102.928 23.6414C103.152 23.791 103.497 23.9572 103.962 24.1401C104.386 24.3063 104.731 24.4642 104.997 24.6138C105.263 24.7633 105.492 24.9628 105.683 25.2121C105.874 25.4614 105.969 25.7731 105.969 26.1471C105.969 26.5543 105.845 26.9116 105.595 27.2191C105.354 27.5183 105.018 27.751 104.586 27.9172C104.154 28.0751 103.663 28.1541 103.115 28.1541ZM114.673 21.1732L113.464 28.0419H112.042L112.18 27.2316C111.905 27.5141 111.573 27.7385 111.182 27.9047C110.8 28.0626 110.405 28.1416 109.998 28.1416C109.275 28.1416 108.697 27.9463 108.265 27.5557C107.833 27.1651 107.617 26.6125 107.617 25.8977C107.617 25.7066 107.638 25.4781 107.679 25.2121L108.39 21.1732H109.799L109.125 25.0002C109.092 25.2329 109.076 25.3991 109.076 25.4988C109.076 25.9559 109.2 26.305 109.45 26.546C109.707 26.787 110.06 26.9075 110.509 26.9075C111.033 26.9075 111.477 26.7537 111.843 26.4462C112.209 26.1304 112.45 25.6775 112.566 25.0875L113.252 21.1732H114.673ZM124.888 21.061C125.611 21.061 126.188 21.2563 126.62 21.6469C127.052 22.0375 127.268 22.5901 127.268 23.3048C127.268 23.496 127.248 23.7245 127.206 23.9905L126.483 28.0419H125.074L125.76 24.2024C125.793 23.9697 125.81 23.8035 125.81 23.7037C125.81 23.2467 125.681 22.8976 125.424 22.6566C125.174 22.4156 124.825 22.2951 124.376 22.2951C123.836 22.2951 123.379 22.4613 123.005 22.7937C122.639 23.1179 122.407 23.5874 122.307 24.2024L121.621 28.0419H120.213L120.898 24.2024C120.932 23.9697 120.948 23.8035 120.948 23.7037C120.948 23.2467 120.819 22.8976 120.562 22.6566C120.313 22.4156 119.963 22.2951 119.515 22.2951C118.975 22.2951 118.517 22.4613 118.143 22.7937C117.778 23.1179 117.545 23.5874 117.445 24.2024V24.165L116.76 28.0419H115.339L116.548 21.1732H117.969L117.832 21.971C118.106 21.6884 118.434 21.4682 118.817 21.3103C119.207 21.1441 119.61 21.061 120.026 21.061C120.574 21.061 121.044 21.1773 121.434 21.41C121.833 21.6427 122.112 21.9793 122.27 22.4198C122.544 22.0042 122.922 21.676 123.404 21.435C123.886 21.1856 124.381 21.061 124.888 21.061ZM135.721 21.1732L134.512 28.0419H133.091L133.228 27.2316C132.954 27.5141 132.621 27.7385 132.231 27.9047C131.848 28.0626 131.454 28.1416 131.046 28.1416C130.323 28.1416 129.746 27.9463 129.314 27.5557C128.882 27.1651 128.665 26.6125 128.665 25.8977C128.665 25.7066 128.686 25.4781 128.728 25.2121L129.438 21.1732H130.847L130.174 25.0002C130.141 25.2329 130.124 25.3991 130.124 25.4988C130.124 25.9559 130.249 26.305 130.498 26.546C130.756 26.787 131.109 26.9075 131.558 26.9075C132.081 26.9075 132.526 26.7537 132.891 26.4462C133.257 26.1304 133.498 25.6775 133.614 25.0875L134.3 21.1732H135.721ZM141.745 26.9573H144.674L144.475 28.0419H140.124L141.658 19.3781H143.079L141.745 26.9573ZM147.758 20.2632C147.533 20.2632 147.35 20.1925 147.209 20.0512C147.068 19.91 146.997 19.7313 146.997 19.5152C146.997 19.2243 147.105 18.975 147.321 18.7673C147.546 18.5512 147.799 18.4431 148.082 18.4431C148.306 18.4431 148.485 18.5138 148.618 18.6551C148.759 18.7963 148.83 18.975 148.83 19.1911C148.83 19.482 148.722 19.7354 148.506 19.9515C148.289 20.1593 148.04 20.2632 147.758 20.2632ZM148.294 21.1732L147.084 28.0419H145.663L146.873 21.1732H148.294ZM153.65 21.061C154.373 21.061 154.946 21.2563 155.37 21.6469C155.802 22.0292 156.018 22.5818 156.018 23.3048C156.018 23.4877 155.998 23.7162 155.956 23.9905L155.233 28.0419H153.824L154.51 24.2024C154.543 23.9697 154.56 23.8035 154.56 23.7037C154.56 23.2467 154.431 22.8976 154.173 22.6566C153.924 22.4156 153.575 22.2951 153.126 22.2951C152.586 22.2951 152.129 22.4613 151.755 22.7937C151.389 23.1179 151.157 23.5874 151.057 24.2024V24.165L150.371 28.0419H148.95L150.159 21.1732H151.581L151.443 21.971C151.726 21.6884 152.058 21.4682 152.441 21.3103C152.831 21.1441 153.234 21.061 153.65 21.061ZM160.362 24.6138L162.93 28.0419H161.01L158.99 25.0875L158.467 28.0419H157.046L158.679 18.8171H160.1L159.152 24.165L162.169 21.1732H164.139L160.362 24.6138ZM174.816 19.3781L174.617 20.4876H172.31L170.977 28.0419H169.555L170.889 20.4876H168.571L168.77 19.3781H174.816ZM177.726 28.1541C177.144 28.1541 176.633 28.0336 176.193 27.7926C175.752 27.5515 175.408 27.2108 175.158 26.7704C174.917 26.3299 174.797 25.8271 174.797 25.262C174.797 24.4891 174.975 23.7827 175.333 23.1428C175.698 22.5029 176.197 21.9959 176.829 21.6219C177.469 21.248 178.179 21.061 178.96 21.061C179.542 21.061 180.057 21.1856 180.506 21.435C180.955 21.676 181.304 22.0167 181.553 22.4572C181.811 22.8893 181.94 23.3921 181.94 23.9655C181.94 24.7384 181.753 25.4448 181.379 26.0847C181.005 26.7246 180.498 27.2316 179.858 27.6056C179.218 27.9712 178.507 28.1541 177.726 28.1541ZM177.901 26.9573C178.374 26.9573 178.807 26.8244 179.197 26.5584C179.596 26.2842 179.908 25.9268 180.132 25.4864C180.357 25.0376 180.469 24.5597 180.469 24.0528C180.469 23.4794 180.307 23.0389 179.983 22.7314C179.658 22.4156 179.251 22.2577 178.761 22.2577C178.279 22.2577 177.847 22.3948 177.464 22.6691C177.09 22.935 176.795 23.2965 176.579 23.7536C176.372 24.2024 176.268 24.6844 176.268 25.1997C176.268 25.7565 176.417 26.1886 176.717 26.4961C177.024 26.8036 177.419 26.9573 177.901 26.9573ZM190.101 21.1732L188.892 28.0419H187.471L187.608 27.2316C187.334 27.5141 187.001 27.7385 186.611 27.9047C186.228 28.0626 185.834 28.1416 185.426 28.1416C184.703 28.1416 184.126 27.9463 183.694 27.5557C183.261 27.1651 183.045 26.6125 183.045 25.8977C183.045 25.7066 183.066 25.4781 183.108 25.2121L183.818 21.1732H185.227L184.554 25.0002C184.52 25.2329 184.504 25.3991 184.504 25.4988C184.504 25.9559 184.629 26.305 184.878 26.546C185.135 26.787 185.489 26.9075 185.937 26.9075C186.461 26.9075 186.906 26.7537 187.271 26.4462C187.637 26.1304 187.878 25.6775 187.994 25.0875L188.68 21.1732H190.101ZM193.185 22.3824C193.468 21.9668 193.8 21.6427 194.183 21.41C194.573 21.1773 195.005 21.061 195.479 21.061L195.217 22.532H194.856C194.307 22.532 193.867 22.6691 193.534 22.9433C193.202 23.2176 192.969 23.6913 192.836 24.3644L192.188 28.0419H190.767L191.976 21.1732H193.397L193.185 22.3824ZM198.082 28.1541C197.608 28.1541 197.176 28.0751 196.785 27.9172C196.395 27.751 196.087 27.5225 195.863 27.2316C195.638 26.9324 195.526 26.5917 195.526 26.2094C195.526 26.1429 195.535 26.0515 195.551 25.9351H196.935C196.902 26.2509 196.997 26.5127 197.222 26.7205C197.446 26.9283 197.762 27.0321 198.169 27.0321C198.568 27.0321 198.896 26.9615 199.154 26.8202C199.411 26.6789 199.54 26.4712 199.54 26.1969C199.54 25.9642 199.432 25.7772 199.216 25.636C199.008 25.4947 198.672 25.3368 198.206 25.1623C197.766 24.9877 197.409 24.8257 197.134 24.6761C196.86 24.5265 196.623 24.3229 196.424 24.0653C196.224 23.7993 196.125 23.4711 196.125 23.0805C196.125 22.6815 196.237 22.3325 196.461 22.0333C196.694 21.7258 197.014 21.489 197.421 21.3228C197.837 21.1482 198.31 21.061 198.842 21.061C199.324 21.061 199.752 21.1441 200.126 21.3103C200.508 21.4682 200.803 21.6967 201.011 21.9959C201.227 22.2868 201.335 22.6234 201.335 23.0057C201.335 23.122 201.331 23.2093 201.323 23.2674H199.977C200.01 22.9433 199.914 22.6815 199.69 22.4821C199.474 22.2826 199.162 22.1829 198.755 22.1829C198.398 22.1829 198.107 22.2577 197.882 22.4073C197.666 22.5569 197.558 22.7605 197.558 23.0181C197.558 23.2758 197.67 23.4835 197.895 23.6414C198.119 23.791 198.464 23.9572 198.929 24.1401C199.353 24.3063 199.698 24.4642 199.964 24.6138C200.23 24.7633 200.459 24.9628 200.65 25.2121C200.841 25.4614 200.936 25.7731 200.936 26.1471C200.936 26.5543 200.812 26.9116 200.562 27.2191C200.321 27.5183 199.985 27.751 199.553 27.9172C199.121 28.0751 198.63 28.1541 198.082 28.1541ZM212.816 25.9476L214.561 28.0419H212.704L211.819 26.9698C211.329 27.3853 210.822 27.697 210.298 27.9047C209.775 28.1042 209.209 28.2039 208.603 28.2039C207.763 28.2039 207.103 28.0086 206.621 27.618C206.139 27.2274 205.898 26.6831 205.898 25.985C205.898 25.2869 206.126 24.6636 206.583 24.1151C207.049 23.5583 207.672 23.1303 208.453 22.8311C208.179 22.4156 208.042 22.0167 208.042 21.6344C208.042 21.1607 208.158 20.7369 208.391 20.3629C208.624 19.9889 208.948 19.698 209.363 19.4903C209.787 19.2825 210.269 19.1786 210.809 19.1786C211.432 19.1786 211.919 19.3365 212.268 19.6523C212.617 19.9681 212.791 20.3629 212.791 20.8366C212.791 20.9446 212.779 21.061 212.754 21.1856H211.333C211.341 21.1441 211.345 21.0859 211.345 21.0111C211.345 20.8034 211.275 20.6413 211.133 20.525C211 20.4003 210.818 20.338 210.585 20.338C210.269 20.338 210.007 20.4418 209.799 20.6496C209.592 20.8574 209.488 21.1025 209.488 21.3851C209.488 21.5679 209.534 21.7591 209.625 21.9585C209.725 22.1497 209.887 22.3948 210.111 22.694L212.006 24.9753L213.153 23.5168H214.686L213.228 25.4365L212.816 25.9476ZM208.815 26.9947C209.596 26.9947 210.344 26.6748 211.059 26.0349L209.164 23.7287C208.607 23.9364 208.166 24.2148 207.842 24.5639C207.518 24.9046 207.356 25.3035 207.356 25.7606C207.356 26.1263 207.485 26.4255 207.743 26.6582C208.009 26.8825 208.366 26.9947 208.815 26.9947ZM92.5501 47.1291C92.0182 47.1291 91.5403 47.046 91.1165 46.8798C90.6926 46.7053 90.3561 46.456 90.1068 46.1319C89.8574 45.7994 89.7328 45.4088 89.7328 44.9601C89.7328 44.9019 89.7411 44.798 89.7577 44.6484H91.1664C91.1331 45.0307 91.2453 45.3507 91.5029 45.6083C91.7606 45.8576 92.1304 45.9823 92.6124 45.9823C93.1276 45.9823 93.5307 45.8784 93.8216 45.6706C94.1125 45.4545 94.2579 45.1471 94.2579 44.7481C94.2579 44.5071 94.1831 44.3035 94.0335 44.1373C93.8922 43.9628 93.7094 43.8174 93.485 43.701C93.2689 43.5847 92.9656 43.4475 92.575 43.2896C92.0597 43.0736 91.6484 42.8783 91.3409 42.7037C91.0334 42.5292 90.7674 42.2882 90.5431 41.9807C90.327 41.6732 90.2189 41.2868 90.2189 40.8214C90.2189 40.3061 90.3519 39.8574 90.6179 39.4751C90.8838 39.0845 91.2495 38.7853 91.7148 38.5775C92.1886 38.3698 92.7204 38.2659 93.3105 38.2659C93.9005 38.2659 94.4075 38.3656 94.8313 38.5651C95.2635 38.7562 95.5876 39.0305 95.8037 39.3878C96.028 39.7369 96.1278 40.1482 96.1028 40.6219H94.6069C94.6402 40.2812 94.5363 39.9987 94.2953 39.7743C94.0543 39.5416 93.7052 39.4252 93.2482 39.4252C92.7661 39.4252 92.3797 39.5374 92.0888 39.7618C91.8063 39.9779 91.665 40.2729 91.665 40.6469C91.665 40.8796 91.7356 41.0832 91.8769 41.2577C92.0265 41.4239 92.2135 41.5694 92.4379 41.694C92.6623 41.8104 92.9656 41.9516 93.3479 42.1179C93.8631 42.3505 94.2745 42.5583 94.582 42.7411C94.8978 42.924 95.1679 43.1733 95.3923 43.4891C95.6167 43.7966 95.7289 44.1789 95.7289 44.636C95.7289 45.118 95.5959 45.5501 95.33 45.9324C95.064 46.3064 94.69 46.6014 94.208 46.8175C93.726 47.0252 93.1734 47.1291 92.5501 47.1291ZM97.0083 43.5764C97.1329 42.8866 97.3822 42.2758 97.7562 41.7439C98.1385 41.212 98.6039 40.8006 99.1524 40.5098C99.7009 40.2106 100.274 40.061 100.873 40.061C101.413 40.061 101.866 40.169 102.231 40.3851C102.597 40.5929 102.871 40.8546 103.054 41.1704L103.229 40.1732H104.662L103.453 47.0419H102.02L102.207 46.0197C101.907 46.3438 101.529 46.6139 101.072 46.83C100.623 47.046 100.133 47.1541 99.6012 47.1541C99.0859 47.1541 98.6247 47.0377 98.2175 46.805C97.8185 46.5723 97.5027 46.2441 97.27 45.8202C97.0457 45.3881 96.9335 44.8936 96.9335 44.3368C96.9335 44.0875 96.9584 43.834 97.0083 43.5764ZM102.63 43.6013C102.664 43.4434 102.68 43.273 102.68 43.0902C102.68 42.5334 102.514 42.0971 102.182 41.7813C101.857 41.4572 101.45 41.2951 100.96 41.2951C100.594 41.2951 100.237 41.3865 99.8879 41.5694C99.5388 41.7439 99.2355 42.0057 98.9779 42.3547C98.7202 42.6954 98.5499 43.1027 98.4668 43.5764C98.4335 43.7343 98.4169 43.9046 98.4169 44.0875C98.4169 44.6526 98.579 45.1013 98.9031 45.4338C99.2355 45.7579 99.6469 45.9199 100.137 45.9199C100.503 45.9199 100.86 45.8285 101.209 45.6457C101.558 45.4629 101.862 45.1969 102.119 44.8479C102.377 44.4905 102.547 44.075 102.63 43.6013ZM109.595 38.6025C109.163 38.6025 108.843 38.6856 108.636 38.8518C108.428 39.018 108.291 39.2964 108.224 39.687L108.137 40.1732H109.408L109.209 41.3325H107.938L106.928 47.0419H105.494L106.504 41.3325H105.694L105.893 40.1732H106.703L106.791 39.687C106.932 38.8975 107.244 38.3241 107.726 37.9667C108.208 37.6011 108.897 37.4182 109.795 37.4182L109.595 38.6025ZM109.596 43.5764C109.721 42.8866 109.97 42.2758 110.344 41.7439C110.726 41.212 111.192 40.8006 111.74 40.5098C112.289 40.2106 112.862 40.061 113.46 40.061C114 40.061 114.453 40.169 114.819 40.3851C115.185 40.5929 115.459 40.8546 115.642 41.1704L115.816 40.1732H117.25L116.041 47.0419H114.607L114.794 46.0197C114.495 46.3438 114.117 46.6139 113.66 46.83C113.211 47.046 112.721 47.1541 112.189 47.1541C111.674 47.1541 111.212 47.0377 110.805 46.805C110.406 46.5723 110.09 46.2441 109.858 45.8202C109.633 45.3881 109.521 44.8936 109.521 44.3368C109.521 44.0875 109.546 43.834 109.596 43.5764ZM115.218 43.6013C115.251 43.4434 115.268 43.273 115.268 43.0902C115.268 42.5334 115.102 42.0971 114.769 41.7813C114.445 41.4572 114.038 41.2951 113.548 41.2951C113.182 41.2951 112.825 41.3865 112.475 41.5694C112.126 41.7439 111.823 42.0057 111.565 42.3547C111.308 42.6954 111.137 43.1027 111.054 43.5764C111.021 43.7343 111.005 43.9046 111.005 44.0875C111.005 44.6526 111.167 45.1013 111.491 45.4338C111.823 45.7579 112.234 45.9199 112.725 45.9199C113.09 45.9199 113.448 45.8285 113.797 45.6457C114.146 45.4629 114.449 45.1969 114.707 44.8479C114.965 44.4905 115.135 44.075 115.218 43.6013ZM120.326 41.3824C120.608 40.9668 120.941 40.6427 121.323 40.41C121.714 40.1773 122.146 40.061 122.619 40.061L122.358 41.532H121.996C121.448 41.532 121.007 41.6691 120.675 41.9433C120.342 42.2176 120.11 42.6913 119.977 43.3644L119.328 47.0419H117.907L119.116 40.1732H120.538L120.326 41.3824ZM124.786 39.2632C124.561 39.2632 124.379 39.1925 124.237 39.0512C124.096 38.91 124.025 38.7313 124.025 38.5152C124.025 38.2243 124.133 37.975 124.35 37.7673C124.574 37.5512 124.827 37.4431 125.11 37.4431C125.334 37.4431 125.513 37.5138 125.646 37.6551C125.787 37.7963 125.858 37.975 125.858 38.1911C125.858 38.482 125.75 38.7354 125.534 38.9515C125.318 39.1593 125.068 39.2632 124.786 39.2632ZM125.322 40.1732L124.113 47.0419H122.692L123.901 40.1732H125.322ZM128.509 47.1541C128.035 47.1541 127.603 47.0751 127.213 46.9172C126.822 46.751 126.514 46.5225 126.29 46.2316C126.066 45.9324 125.954 45.5917 125.954 45.2094C125.954 45.1429 125.962 45.0515 125.978 44.9351H127.362C127.329 45.2509 127.425 45.5127 127.649 45.7205C127.873 45.9283 128.189 46.0321 128.596 46.0321C128.995 46.0321 129.323 45.9615 129.581 45.8202C129.839 45.6789 129.968 45.4712 129.968 45.1969C129.968 44.9642 129.86 44.7772 129.643 44.636C129.436 44.4947 129.099 44.3368 128.634 44.1623C128.193 43.9877 127.836 43.8257 127.562 43.6761C127.287 43.5265 127.051 43.3229 126.851 43.0653C126.652 42.7993 126.552 42.4711 126.552 42.0805C126.552 41.6815 126.664 41.3325 126.888 41.0333C127.121 40.7258 127.441 40.489 127.848 40.3228C128.264 40.1482 128.738 40.061 129.269 40.061C129.751 40.061 130.179 40.1441 130.553 40.3103C130.936 40.4682 131.231 40.6967 131.439 40.9959C131.655 41.2868 131.763 41.6234 131.763 42.0057C131.763 42.122 131.758 42.2093 131.75 42.2674H130.404C130.437 41.9433 130.342 41.6815 130.117 41.4821C129.901 41.2826 129.589 41.1829 129.182 41.1829C128.825 41.1829 128.534 41.2577 128.31 41.4073C128.094 41.5569 127.985 41.7605 127.985 42.0181C127.985 42.2758 128.098 42.4835 128.322 42.6414C128.546 42.791 128.891 42.9572 129.357 43.1401C129.781 43.3063 130.125 43.4642 130.391 43.6138C130.657 43.7633 130.886 43.9628 131.077 44.2121C131.268 44.4614 131.364 44.7731 131.364 45.1471C131.364 45.5543 131.239 45.9116 130.99 46.2191C130.749 46.5183 130.412 46.751 129.98 46.9172C129.548 47.0751 129.058 47.1541 128.509 47.1541ZM137.995 45.9573H140.925L140.725 47.0419H136.375L137.908 38.3781H139.329L137.995 45.9573ZM149.044 38.3781L148.845 39.4876H146.539L145.205 47.0419H143.784L145.118 39.4876H142.799L142.998 38.3781H149.044ZM153.313 38.3781C154.119 38.3781 154.818 38.5152 155.408 38.7895C155.998 39.0637 156.446 39.4585 156.754 39.9737C157.07 40.489 157.228 41.0998 157.228 41.8062C157.228 42.1303 157.198 42.442 157.14 42.7411C156.982 43.6221 156.658 44.3866 156.168 45.0349C155.678 45.6831 155.054 46.1817 154.298 46.5308C153.542 46.8715 152.702 47.0419 151.78 47.0419H148.95L150.484 38.3781H153.313ZM151.979 45.9573C152.985 45.9573 153.808 45.6706 154.448 45.0972C155.096 44.5238 155.507 43.7384 155.682 42.7411C155.732 42.4503 155.757 42.1802 155.757 41.9309C155.757 41.1663 155.532 40.5762 155.083 40.1607C154.635 39.7369 153.978 39.525 153.114 39.525H151.705L150.571 45.9573H151.979Z" fill="white"/>
<path d="M20.9023 48L11.1361 34.345V48H2.47469V16.8454H11.1361V30.2795L20.8139 16.8454H30.801L19.3556 31.9587L31.3755 48H20.9023ZM43.2004 41.3714H52.8782V48H34.539V16.8454H43.2004V41.3714ZM79.7114 16.8454V23.7392H71.4035V48H62.7421V23.7392H54.5226V16.8454H79.7114Z" fill="white"/>
<path d="M60.5756 29.839C59.4293 30.9658 58.6705 31.0406 57.8357 30.2765C56.9991 29.5147 57.0822 28.0691 58.0165 27.047C58.4459 26.5771 59.2734 25.667 59.6335 25.2223C60.2081 24.5142 60.7848 23.3744 61.1933 22.787C61.287 22.6527 61.8305 21.5311 62.2386 21.0497C62.8998 20.2657 64.0706 20.167 64.8555 20.8259L66.224 21.9816C66.4307 22.1542 66.9567 22.7369 66.9567 22.7369C67.627 23.5799 67.5143 24.3343 66.6699 25.0039C66.1815 25.3907 65.0921 25.5258 64.7667 25.2235C64.4405 24.9201 64.3599 24.7376 64.1748 24.504C63.9088 24.1684 63.2742 24.3959 62.9695 24.5733C62.805 24.669 62.107 25.2087 61.5673 26.3361C61.0296 27.4628 62.1077 28.3337 60.5756 29.839ZM67.3878 22.8337C67.6645 23.183 68.3053 23.1374 68.8172 22.7313C69.3292 22.3251 69.5206 21.7124 69.2434 21.3636C68.9652 21.0136 68.3254 21.0594 67.8139 21.4661C67.302 21.8713 67.1106 22.484 67.3878 22.8337ZM65.6142 20.8666C65.8286 21.0366 66.2005 20.92 66.4465 20.6081C66.6904 20.296 66.719 19.908 66.5069 19.7388C66.2927 19.5703 65.9208 19.6869 65.6756 19.9974C65.4295 20.3103 65.4 20.6981 65.6142 20.8666ZM66.5643 21.6027C66.7957 21.8246 67.2414 21.7268 67.5612 21.3877C67.8798 21.0506 67.9507 20.601 67.7221 20.3815C67.4901 20.1645 67.0437 20.2602 66.7251 20.5983C66.4073 20.9366 66.335 21.3844 66.5643 21.6027ZM64.1237 19.7396C64.2632 19.4998 64.2425 19.2297 64.0796 19.1355C63.914 19.0391 63.6693 19.1571 63.5313 19.3966C63.3934 19.6362 63.4159 19.9074 63.5783 20.002C63.742 20.0963 63.9871 19.9797 64.1237 19.7396ZM64.588 20.3301C64.7947 20.4498 65.1061 20.2998 65.2803 19.9966C65.4568 19.6915 65.4303 19.3468 65.2232 19.23C65.0153 19.1077 64.7044 19.2593 64.5288 19.5609C64.3533 19.866 64.38 20.2088 64.588 20.3301ZM60.5756 29.839C59.4293 30.9658 58.6705 31.0406 57.8357 30.2765C56.9991 29.5147 57.0822 28.0691 58.0165 27.047C58.4459 26.5771 59.2734 25.667 59.6335 25.2223C60.2081 24.5142 60.7848 23.3744 61.1933 22.787C61.287 22.6527 61.8305 21.5311 62.2386 21.0497C62.8998 20.2657 64.0706 20.167 64.8555 20.8259L66.224 21.9816C66.4307 22.1542 66.9567 22.7369 66.9567 22.7369C67.627 23.5799 67.5143 24.3343 66.6699 25.0039C66.1815 25.3907 65.0921 25.5258 64.7667 25.2235C64.4405 24.9201 64.3599 24.7376 64.1748 24.504C63.9088 24.1684 63.2742 24.3959 62.9695 24.5733C62.805 24.669 62.107 25.2087 61.5673 26.3361C61.0296 27.4628 62.1077 28.3337 60.5756 29.839ZM67.3878 22.8337C67.6645 23.183 68.3053 23.1374 68.8172 22.7313C69.3292 22.3251 69.5206 21.7124 69.2434 21.3636C68.9652 21.0136 68.3254 21.0594 67.8139 21.4661C67.302 21.8713 67.1106 22.484 67.3878 22.8337ZM65.6142 20.8666C65.8286 21.0366 66.2005 20.92 66.4465 20.6081C66.6904 20.296 66.719 19.908 66.5069 19.7388C66.2927 19.5703 65.9208 19.6869 65.6756 19.9974C65.4295 20.3103 65.4 20.6981 65.6142 20.8666ZM66.5643 21.6027C66.7957 21.8246 67.2414 21.7268 67.5612 21.3877C67.8798 21.0506 67.9507 20.601 67.7221 20.3815C67.4901 20.1645 67.0437 20.2602 66.7251 20.5983C66.4073 20.9366 66.335 21.3844 66.5643 21.6027ZM64.1237 19.7396C64.2632 19.4998 64.2425 19.2297 64.0796 19.1355C63.914 19.0391 63.6693 19.1571 63.5313 19.3966C63.3934 19.6362 63.4159 19.9074 63.5783 20.002C63.742 20.0963 63.9871 19.9797 64.1237 19.7396ZM64.588 20.3301C64.7947 20.4498 65.1061 20.2998 65.2803 19.9966C65.4568 19.6915 65.4303 19.3468 65.2232 19.23C65.0153 19.1077 64.7044 19.2593 64.5288 19.5609C64.3533 19.866 64.38 20.2088 64.588 20.3301ZM66.9139 29.3484C68.1383 29.0923 68.8285 28.5428 68.9601 28.4051C69.2053 28.1519 69.5777 27.5892 69.315 27.251C69.1317 27.0151 68.974 26.8939 68.7564 26.5044C68.5397 26.116 68.9303 25.0915 69.4228 24.7086C70.2744 24.0482 71.0334 24.1185 71.6931 24.9681C71.6931 24.9681 72.1334 25.618 72.2523 25.8604L73.0494 27.4645C73.5019 28.3823 73.1289 29.4978 72.2094 29.9516C71.6443 30.2328 70.4256 30.495 70.2734 30.5537C69.6047 30.8106 68.3609 31.1004 67.537 31.4896C67.0189 31.7342 65.9385 32.322 65.3801 32.6264C64.1646 33.2912 62.7408 33.0281 62.1997 32.0344C61.657 31.042 61.9096 30.3232 63.2767 29.4777C65.1029 28.3495 65.6937 29.602 66.9139 29.3484ZM73.1311 24.4388C73.6484 24.0381 73.844 23.4275 73.571 23.0752C73.2977 22.7224 72.6571 22.7626 72.1408 23.1633C71.6245 23.564 71.4279 24.1756 71.7013 24.5274C71.9753 24.8789 72.6164 24.8392 73.1311 24.4388ZM74.0492 26.865C74.4097 26.7002 74.6113 26.3667 74.4991 26.1192C74.3847 25.8724 74.0011 25.8078 73.6385 25.9699C73.2775 26.1352 73.0758 26.4687 73.19 26.7174C73.3026 26.9654 73.6869 27.0286 74.0492 26.865ZM73.7156 25.7023C74.1204 25.4727 74.319 25.0623 74.1625 24.7843C74.0044 24.5111 73.5509 24.4731 73.1472 24.7018C72.7419 24.9318 72.5418 25.3425 72.7019 25.6195C72.8588 25.8946 73.3105 25.9304 73.7156 25.7023ZM73.5451 28.9C73.5988 29.0807 73.857 29.1662 74.1225 29.0891C74.3875 29.0115 74.5604 28.8018 74.5069 28.6192C74.4542 28.4386 74.1973 28.3538 73.9302 28.4321C73.665 28.5082 73.4934 28.7185 73.5451 28.9ZM74.201 28.0822C74.5362 27.984 74.7569 27.7174 74.688 27.487C74.6248 27.2582 74.2962 27.1505 73.9571 27.2483C73.621 27.3464 73.4004 27.612 73.4684 27.8423C73.5363 28.0727 73.8625 28.1796 74.201 28.0822ZM66.9139 29.3484C68.1383 29.0923 68.8285 28.5428 68.9601 28.4051C69.2053 28.1519 69.5777 27.5892 69.315 27.251C69.1317 27.0151 68.974 26.8939 68.7564 26.5044C68.5397 26.116 68.9303 25.0915 69.4228 24.7086C70.2744 24.0482 71.0334 24.1185 71.6931 24.9681C71.6931 24.9681 72.1334 25.618 72.2523 25.8604L73.0494 27.4645C73.5019 28.3823 73.1289 29.4978 72.2094 29.9516C71.6443 30.2328 70.4256 30.495 70.2734 30.5537C69.6047 30.8106 68.3609 31.1004 67.537 31.4896C67.0189 31.7342 65.9385 32.322 65.3801 32.6264C64.1646 33.2912 62.7408 33.0281 62.1997 32.0344C61.657 31.042 61.9096 30.3232 63.2767 29.4777C65.1029 28.3495 65.6937 29.602 66.9139 29.3484ZM73.1311 24.4388C73.6484 24.0381 73.844 23.4275 73.571 23.0752C73.2977 22.7224 72.6571 22.7626 72.1408 23.1633C71.6245 23.564 71.4279 24.1756 71.7013 24.5274C71.9753 24.8789 72.6164 24.8392 73.1311 24.4388ZM74.0492 26.865C74.4097 26.7002 74.6113 26.3667 74.4991 26.1192C74.3847 25.8724 74.0011 25.8078 73.6385 25.9699C73.2775 26.1352 73.0758 26.4687 73.19 26.7174C73.3026 26.9654 73.6869 27.0286 74.0492 26.865ZM73.7156 25.7023C74.1204 25.4727 74.319 25.0623 74.1625 24.7843C74.0044 24.5111 73.5509 24.4731 73.1472 24.7018C72.7419 24.9318 72.5418 25.3425 72.7019 25.6195C72.8588 25.8946 73.3105 25.9304 73.7156 25.7023ZM73.5451 28.9C73.5988 29.0807 73.857 29.1662 74.1225 29.0891C74.3875 29.0115 74.5604 28.8018 74.5069 28.6192C74.4542 28.4386 74.1973 28.3538 73.9302 28.4321C73.665 28.5082 73.4934 28.7185 73.5451 28.9ZM74.201 28.0822C74.5362 27.984 74.7569 27.7174 74.688 27.487C74.6248 27.2582 74.2962 27.1505 73.9571 27.2483C73.621 27.3464 73.4004 27.612 73.4684 27.8423C73.5363 28.0727 73.8625 28.1796 74.201 28.0822Z" fill="#FD5F00"/>
<path d="M8.09946 39.0639C6.80743 40.0202 6.04559 39.9886 5.3253 39.1157C4.60297 38.2448 4.88656 36.8248 5.95408 35.9428C6.44472 35.5373 7.39087 34.7513 7.80945 34.361C8.47702 33.7398 9.20688 32.6915 9.69319 32.1667C9.80468 32.0467 10.4991 31.0118 10.9702 30.5919C11.7341 29.9076 12.9073 29.9729 13.5927 30.7347L14.787 32.0697C14.9677 32.2694 15.4074 32.9196 15.4074 32.9196C15.9538 33.8477 15.7371 34.5791 14.8077 35.1246C14.2701 35.4396 13.1726 35.4218 12.8924 35.0771C12.6117 34.7312 12.5572 34.5392 12.4065 34.2822C12.1898 33.9127 11.5297 34.0497 11.2033 34.183C11.027 34.2548 10.2607 34.6921 9.56926 35.7333C8.8799 36.7741 9.8262 37.7867 8.09946 39.0639ZM15.8207 33.0756C16.0461 33.46 16.687 33.5041 17.2506 33.1731C17.8141 32.8422 18.089 32.2622 17.863 31.8781C17.6363 31.4929 16.9964 31.449 16.4332 31.7806C15.8698 32.1106 15.595 32.6906 15.8207 33.0756ZM14.3384 30.8806C14.5271 31.0788 14.9116 31.0152 15.1986 30.7406C15.4836 30.4654 15.5659 30.0852 15.3794 29.8881C15.1908 29.6915 14.8063 29.7551 14.5202 30.0284C14.233 30.304 14.1497 30.6839 14.3384 30.8806ZM15.1768 31.7418C15.375 31.9938 15.83 31.959 16.1938 31.6678C16.5563 31.3783 16.6891 30.943 16.4933 30.6938C16.2938 30.4465 15.8384 30.4792 15.4758 30.7697C15.114 31.0604 14.9801 31.4938 15.1768 31.7418ZM13.0194 29.557C13.1909 29.339 13.208 29.0687 13.0598 28.9527C12.9093 28.8341 12.6505 28.917 12.4806 29.1349C12.3106 29.3529 12.2951 29.6246 12.4427 29.7409C12.5917 29.8572 12.8507 29.7758 13.0194 29.557ZM13.397 30.2065C13.585 30.3538 13.9141 30.2486 14.1289 29.9726C14.3462 29.6951 14.3679 29.35 14.1791 29.2056C13.9903 29.0555 13.6613 29.1623 13.4454 29.4365C13.2291 29.7142 13.2079 30.0574 13.397 30.2065ZM8.09946 39.0639C6.80743 40.0202 6.04559 39.9886 5.3253 39.1157C4.60297 38.2448 4.88656 36.8248 5.95408 35.9428C6.44472 35.5373 7.39087 34.7513 7.80945 34.361C8.47702 33.7398 9.20688 32.6915 9.69319 32.1667C9.80468 32.0467 10.4991 31.0118 10.9702 30.5919C11.7341 29.9076 12.9073 29.9729 13.5927 30.7347L14.787 32.0697C14.9677 32.2694 15.4074 32.9196 15.4074 32.9196C15.9538 33.8477 15.7371 34.5791 14.8077 35.1246C14.2701 35.4396 13.1726 35.4218 12.8924 35.0771C12.6117 34.7312 12.5572 34.5392 12.4065 34.2822C12.1898 33.9127 11.5297 34.0497 11.2033 34.183C11.027 34.2548 10.2607 34.6921 9.56926 35.7333C8.8799 36.7741 9.8262 37.7867 8.09946 39.0639ZM15.8207 33.0756C16.0461 33.46 16.687 33.5041 17.2506 33.1731C17.8141 32.8422 18.089 32.2622 17.863 31.8781C17.6363 31.4929 16.9964 31.449 16.4332 31.7806C15.8698 32.1106 15.595 32.6906 15.8207 33.0756ZM14.3384 30.8806C14.5271 31.0788 14.9116 31.0152 15.1986 30.7406C15.4836 30.4654 15.5659 30.0852 15.3794 29.8881C15.1908 29.6915 14.8063 29.7551 14.5202 30.0284C14.233 30.304 14.1497 30.6839 14.3384 30.8806ZM15.1768 31.7418C15.375 31.9938 15.83 31.959 16.1938 31.6678C16.5563 31.3783 16.6891 30.943 16.4933 30.6938C16.2938 30.4465 15.8384 30.4792 15.4758 30.7697C15.114 31.0604 14.9801 31.4938 15.1768 31.7418ZM13.0194 29.557C13.1909 29.339 13.208 29.0687 13.0598 28.9527C12.9093 28.8341 12.6505 28.917 12.4806 29.1349C12.3106 29.3529 12.2951 29.6246 12.4427 29.7409C12.5917 29.8572 12.8507 29.7758 13.0194 29.557ZM13.397 30.2065C13.585 30.3538 13.9141 30.2486 14.1289 29.9726C14.3462 29.6951 14.3679 29.35 14.1791 29.2056C13.9903 29.0555 13.6613 29.1623 13.4454 29.4365C13.2291 29.7142 13.2079 30.0574 13.397 30.2065ZM14.4443 39.4607C15.6924 39.3777 16.4524 38.9296 16.6019 38.8116C16.88 38.595 17.3272 38.0896 17.1141 37.7181C16.9654 37.459 16.8262 37.3171 16.6649 36.9011C16.5044 36.4862 17.0339 35.5261 17.5748 35.2155C18.5102 34.6802 19.252 34.8555 19.7869 35.7887C19.7869 35.7887 20.1325 36.4935 20.2164 36.7501L20.7824 38.4496C21.1027 39.4215 20.578 40.4742 19.6042 40.7955C19.0055 40.9953 17.7622 41.0852 17.6032 41.1221C16.9053 41.2835 15.6333 41.3972 14.7632 41.6679C14.216 41.8379 13.0644 42.2696 12.469 42.4932C11.1728 42.9823 9.79944 42.5236 9.40205 41.4642C9.00283 40.4058 9.35303 39.7292 10.8246 39.0823C12.7901 38.2194 13.2007 39.5419 14.4443 39.4607ZM21.2847 35.4648C21.8526 35.1401 22.1314 34.5626 21.9101 34.1757C21.6886 33.7883 21.0486 33.7389 20.4816 34.0638C19.9146 34.3887 19.6346 34.9669 19.8564 35.3534C20.0788 35.7396 20.7192 35.7896 21.2847 35.4648ZM21.856 37.9952C22.2359 37.8822 22.482 37.58 22.4053 37.3193C22.3264 37.059 21.9555 36.9416 21.5738 37.0516C21.1933 37.165 20.9472 37.4672 21.0256 37.7294C21.1026 37.9907 21.4744 38.1067 21.856 37.9952ZM21.6875 36.7973C22.1203 36.6264 22.3741 36.2476 22.2578 35.9506C22.1394 35.658 21.6956 35.5572 21.2639 35.7275C20.8305 35.8988 20.5752 36.2776 20.6951 36.5742C20.8122 36.8685 21.2546 36.9668 21.6875 36.7973ZM21.0734 39.9402C21.1014 40.1266 21.3452 40.2472 21.6188 40.2078C21.892 40.1679 22.0924 39.9843 22.0649 39.796C22.0378 39.6098 21.7953 39.4901 21.5199 39.5305C21.2466 39.5689 21.0475 39.7533 21.0734 39.9402ZM21.8368 39.2217C22.1823 39.1711 22.438 38.9378 22.4019 38.7C22.3711 38.4647 22.0607 38.3123 21.7114 38.3619C21.3649 38.4123 21.1095 38.6446 21.1447 38.8821C21.1799 39.1197 21.488 39.271 21.8368 39.2217ZM14.4443 39.4607C15.6924 39.3777 16.4524 38.9296 16.6019 38.8116C16.88 38.595 17.3272 38.0896 17.1141 37.7181C16.9654 37.459 16.8262 37.3171 16.6649 36.9011C16.5044 36.4862 17.0339 35.5261 17.5748 35.2155C18.5102 34.6802 19.252 34.8555 19.7869 35.7887C19.7869 35.7887 20.1325 36.4935 20.2164 36.7501L20.7824 38.4496C21.1027 39.4215 20.578 40.4742 19.6042 40.7955C19.0055 40.9953 17.7622 41.0852 17.6032 41.1221C16.9053 41.2835 15.6333 41.3972 14.7632 41.6679C14.216 41.8379 13.0644 42.2696 12.469 42.4932C11.1728 42.9823 9.79944 42.5236 9.40205 41.4642C9.00283 40.4058 9.35303 39.7292 10.8246 39.0823C12.7901 38.2194 13.2007 39.5419 14.4443 39.4607ZM21.2847 35.4648C21.8526 35.1401 22.1314 34.5626 21.9101 34.1757C21.6886 33.7883 21.0486 33.7389 20.4816 34.0638C19.9146 34.3887 19.6346 34.9669 19.8564 35.3534C20.0788 35.7396 20.7192 35.7896 21.2847 35.4648ZM21.856 37.9952C22.2359 37.8822 22.482 37.58 22.4053 37.3193C22.3264 37.059 21.9555 36.9416 21.5738 37.0516C21.1933 37.165 20.9472 37.4672 21.0256 37.7294C21.1026 37.9907 21.4744 38.1067 21.856 37.9952ZM21.6875 36.7973C22.1203 36.6264 22.3741 36.2476 22.2578 35.9506C22.1394 35.658 21.6956 35.5572 21.2639 35.7275C20.8305 35.8988 20.5752 36.2776 20.6951 36.5742C20.8122 36.8685 21.2546 36.9668 21.6875 36.7973ZM21.0734 39.9402C21.1014 40.1266 21.3452 40.2472 21.6188 40.2078C21.892 40.1679 22.0924 39.9843 22.0649 39.796C22.0378 39.6098 21.7953 39.4901 21.5199 39.5305C21.2466 39.5689 21.0475 39.7533 21.0734 39.9402ZM21.8368 39.2217C22.1823 39.1711 22.438 38.9378 22.4019 38.7C22.3711 38.4647 22.0607 38.3123 21.7114 38.3619C21.3649 38.4123 21.1095 38.6446 21.1447 38.8821C21.1799 39.1197 21.488 39.271 21.8368 39.2217Z" fill="#00204A"/>
</svg>
