<svg width="638" height="285" viewBox="0 0 638 285" fill="none" xmlns="http://www.w3.org/2000/svg">
<path d="M10.3416 221H48.331V131.303H48.7531L101.516 221H139.506V70.0976H101.516V159.795H101.094L48.331 70.0976H10.3416V221ZM413.872 109.564C396.355 109.564 386.857 117.795 377.571 128.559H377.149C372.928 117.373 363.008 109.564 348.868 109.564C332.617 109.564 320.798 118.64 315.099 128.559H314.677V112.941H280.909V221H314.677V158.529C314.677 143.544 321.642 137.001 332.195 137.001C344.225 137.001 347.602 142.489 347.602 158.74V221H381.37V158.529C381.37 143.544 388.124 137.001 398.887 137.001C410.917 137.001 414.294 142.489 414.294 158.74V221H448.485V147.976C448.485 123.283 435.61 109.564 413.872 109.564ZM481.021 100.067C490.519 100.067 497.905 95.0018 497.905 85.0823C497.905 75.3739 490.519 70.0976 481.021 70.0976C471.524 70.0976 464.137 75.3739 464.137 85.0823C464.137 95.0018 471.524 100.067 481.021 100.067ZM464.137 112.941V221H497.905V112.941H464.137ZM574.999 111.042C563.18 111.042 553.894 118.64 548.617 130.67H548.195V112.941H514.427V221H548.195V170.77C548.195 147.765 566.557 138.267 583.863 141.433H584.285V111.886C580.486 111.042 577.954 111.042 574.999 111.042ZM612.105 100.067C621.602 100.067 628.989 95.0018 628.989 85.0823C628.989 75.3739 621.602 70.0976 612.105 70.0976C602.607 70.0976 595.22 75.3739 595.22 85.0823C595.22 95.0018 602.607 100.067 612.105 100.067ZM595.22 112.941V221H628.989V112.941H595.22Z" fill="#FFCC1D"/>
<path d="M157.648 203.905C159.969 216.99 171.788 222.055 184.874 222.055C210.411 222.266 228.35 204.116 236.581 196.94C236.581 208.759 234.893 222.477 248.4 222.477C261.908 222.477 274.782 207.915 274.782 207.915L272.671 206.437C261.697 217.834 256.209 213.402 256.209 205.593C256.209 197.995 255.998 174.78 255.998 142.489C255.998 109.986 232.994 99.2228 204.079 103.444C175.165 107.454 164.19 123.283 169.889 131.092C175.376 138.69 185.507 126.66 200.491 125.393C212.31 124.338 215.687 128.559 216.109 133.835C217.587 147.554 188.039 159.373 178.331 165.915C166.09 174.357 154.693 185.965 157.648 203.905ZM199.225 163.172C215.898 150.509 219.908 141.011 218.853 132.991C217.587 122.439 204.924 119.695 191.205 121.172C188.461 121.383 185.507 120.75 186.984 118.429C190.783 112.097 200.069 106.821 211.044 106.61C223.918 106.399 236.581 115.052 236.581 142.277V193.563C231.305 198.628 220.541 205.382 212.733 208.759C201.547 214.035 184.029 211.925 179.386 200.106C174.743 188.076 182.552 175.835 199.225 163.172Z" fill="white"/>
</svg>
