<svg width="103" height="28" viewBox="0 0 103 28" fill="none" xmlns="http://www.w3.org/2000/svg">
<path d="M-3.05176e-05 1.00527C-3.05176e-05 0.868172 0.133758 0.731079 0.267531 0.731079H3.27741C4.88268 0.731079 6.01973 1.82786 6.01973 3.26738C6.01973 4.29561 5.284 5.04964 4.61513 5.46093C5.35088 5.73513 6.28729 6.42062 6.28729 7.65449C6.28729 9.16256 5.08339 10.2593 3.41123 10.2593H0.267531C0.133758 10.2593 -3.05176e-05 10.1222 -3.05176e-05 9.98515V1.00527ZM3.34428 9.02546C4.14691 9.02546 4.74895 8.40852 4.74895 7.51739C4.74895 6.69481 3.9463 6.07787 3.14367 6.07787H1.33769V9.02546H3.34428ZM3.14367 4.91254C4.01319 4.91254 4.48139 4.29561 4.48139 3.47302C4.48139 2.65044 3.9463 2.10205 3.14367 2.10205H1.33769V4.98109H3.14367V4.91254Z" fill="white"/>
<path d="M9.96603 1.00524C9.96603 0.868158 10.0998 0.731079 10.2336 0.731079H13.8455C15.4507 0.731079 16.7215 2.03336 16.7215 3.67836C16.7215 4.91211 15.919 5.94023 14.7819 6.42002L16.5878 9.91564C16.6547 10.1213 16.5878 10.3269 16.3871 10.3269H15.3169C15.1832 10.3269 15.1163 10.2583 15.1163 10.1898L13.3772 6.55711H11.3706V10.0527C11.3706 10.1898 11.2369 10.3269 11.1032 10.3269H10.2336C10.0998 10.3269 9.96603 10.1898 9.96603 10.0527V1.00524ZM13.7786 5.3919C14.6481 5.3919 15.3838 4.63794 15.3838 3.67836C15.3838 2.78732 14.6481 2.03336 13.7786 2.03336H11.4376V5.32336H13.7786V5.3919Z" fill="white"/>
<path d="M19.3301 9.91482L23.4102 0.730527C23.4771 0.661987 23.544 0.593445 23.6109 0.593445H23.7446C23.8115 0.593445 23.9453 0.661987 23.9453 0.730527L28.0254 9.91482C28.0922 10.1204 28.0254 10.2575 27.8247 10.2575H26.9552C26.8214 10.2575 26.6876 10.189 26.6208 10.0519L25.8182 8.20133H21.4705C21.203 8.81819 20.9354 9.43504 20.6679 10.0519C20.601 10.1204 20.5341 10.2575 20.3334 10.2575H19.4639C19.3302 10.3261 19.2632 10.1204 19.3301 9.91482ZM25.3499 7.03616L23.7446 3.33503H23.6777L22.0724 7.03616H25.3499Z" fill="white"/>
<path d="M31.1021 0.867609C31.1021 0.730528 31.2359 0.593445 31.3696 0.593445H31.7041L37.4563 7.44753V1.00469C37.4563 0.867607 37.5901 0.73053 37.7238 0.73053H38.5934C38.7272 0.73053 38.861 0.867607 38.861 1.00469V10.1892C38.861 10.3263 38.7272 10.4633 38.5934 10.4633H38.259L32.5068 3.40362V10.0521C32.5068 10.1892 32.373 10.3263 32.2392 10.3263H31.3696C31.2359 10.3263 31.1021 10.1892 31.1021 10.0521V0.867609Z" fill="white"/>
<path d="M43.1416 1.00523C43.1416 0.868154 43.2754 0.731079 43.4092 0.731079H46.4859C49.0276 0.731079 51.168 2.8558 51.168 5.46029C51.168 8.13333 49.0945 10.258 46.4859 10.258H43.4092C43.2754 10.258 43.1416 10.121 43.1416 9.9839V1.00523ZM46.2853 9.02434C48.225 9.02434 49.6965 7.58502 49.6965 5.52884C49.6965 3.54119 48.2919 2.03332 46.2853 2.03332H44.5463V8.9558H46.2853V9.02434Z" fill="white"/>
<path d="M54.7798 1.00525C54.7798 0.868162 54.9136 0.731079 55.0474 0.731079H60.3983C60.5321 0.731079 60.6659 0.868162 60.6659 1.00525V1.75923C60.6659 1.89632 60.5321 2.0334 60.3983 2.0334H56.1844V4.8437H59.7295C59.8632 4.8437 59.997 4.98078 59.997 5.11787V5.87185C59.997 6.00894 59.8632 6.14602 59.7295 6.14602H56.1844V9.0934H60.3983C60.5321 9.0934 60.6659 9.23049 60.6659 9.36757V10.1216C60.6659 10.2586 60.5321 10.3957 60.3983 10.3957H55.0474C54.9136 10.3957 54.7798 10.2586 54.7798 10.1216V1.00525Z" fill="white"/>
<path d="M64.3446 1.00523C64.3446 0.868154 64.4784 0.731079 64.6122 0.731079H67.6889C70.2306 0.731079 72.371 2.8558 72.371 5.46029C72.371 8.13333 70.2975 10.258 67.6889 10.258H64.6122C64.4784 10.258 64.3446 10.121 64.3446 9.9839V1.00523ZM67.4882 9.02434C69.4279 9.02434 70.8994 7.58502 70.8994 5.52884C70.8994 3.54119 69.4948 2.03332 67.4882 2.03332H65.7492V8.9558H67.4882V9.02434Z" fill="white"/>
<path d="M84.6112 0.524963C84.6112 0.456421 84.745 0.319336 84.8787 0.319336H85.4807C85.6814 0.319336 85.7483 0.456419 85.7483 0.662044L78.3239 26.8449C78.3239 26.9135 78.1901 27.0506 78.0564 27.0506H77.3875C77.1868 27.0506 77.1199 26.9135 77.1199 26.7079L84.6112 0.524963Z" fill="white"/>
<path d="M90.8985 17.6601C90.8985 17.523 91.0323 17.3859 91.1661 17.3859H91.7012C91.835 17.3859 91.9687 17.523 91.9687 17.6601V23.3492C91.9687 24.9257 92.9051 26.091 94.4435 26.091C95.9819 26.091 96.9851 24.9257 96.9851 23.3492V17.6601C96.9851 17.523 97.1189 17.3859 97.2527 17.3859H97.7878C97.9216 17.3859 98.0554 17.523 98.0554 17.6601V23.4178C98.0554 25.4741 96.6507 27.0506 94.5104 27.0506C92.4369 27.0506 90.9654 25.4741 90.9654 23.4178V17.6601H90.8985Z" fill="white"/>
<path d="M101.801 24.7197C102.403 24.7197 102.871 25.1994 102.871 25.8163C102.871 26.4331 102.403 26.9129 101.801 26.9129C101.199 26.9129 100.731 26.4331 100.731 25.8163C100.731 25.1994 101.199 24.7197 101.801 24.7197Z" fill="white"/>
</svg>
