<svg width="98" height="27" viewBox="0 0 98 27" fill="none" xmlns="http://www.w3.org/2000/svg">
<path d="M3.77093 4.1593C5.00059 4.1593 5.98432 5.16733 5.98432 6.42738C5.98432 7.68744 5.00059 8.69549 3.77093 8.69549C2.54127 8.69549 1.55754 7.68744 1.55754 6.42738C1.63951 5.16733 2.54127 4.1593 3.77093 4.1593ZM0.245921 24.4042H2.13139L2.21339 14.0717H0V11.7196H5.41047L5.32851 24.4042H7.29594V26.7563H0.245921V24.4042Z" fill="white"/>
<path d="M9.26335 24.4055H11.0669L11.1488 6.9314H8.60754V4.49512H14.3459L14.2639 18.2728L19.4285 14.1563H17.3791V11.72H24.2651V14.1563H22.7895L17.543 18.6088L23.1994 24.4055H24.839V26.8418H17.789V24.4055H19.5105L14.2639 19.1969V24.4055H15.9855V26.8418H9.26335V24.4055Z" fill="white"/>
<path d="M52.6293 3.99139C53.8589 3.99139 54.8426 4.9995 54.8426 6.25963C54.8426 7.51976 53.8589 8.52784 52.6293 8.52784C51.3996 8.52784 50.4159 7.51976 50.4159 6.25963C50.4978 4.9155 51.3996 3.99139 52.6293 3.99139ZM49.1042 24.2374H50.9897L51.0717 13.9044H48.8583V11.5521H54.2688L54.1868 24.2374H56.1543V26.5896H49.1042V24.2374Z" fill="white"/>
<path d="M58.1217 24.2368H59.9252L60.0073 6.67941H57.4659V4.32721H63.2043L63.1224 18.1043L68.2869 13.988V13.904H66.2375V11.5518H73.1236V13.904H71.6479L66.4014 18.3563L72.0578 24.2368H73.6974V26.589H66.6474V24.2368H68.3689L63.1224 18.9444V24.2368H64.8439V26.589H58.1217V24.2368Z" fill="white"/>
<path d="M27.8722 18.1878C28.0361 17.8518 28.2 17.5998 28.364 17.5158C28.5279 17.4318 28.6919 17.3478 28.8559 17.1797C29.0198 17.0117 29.1018 16.9277 29.1838 16.9277L29.3477 16.8437L29.5936 16.7597C29.7576 16.6757 29.8396 16.5917 29.9216 16.5917H30.2495C30.4134 16.5077 30.4954 16.4237 30.5774 16.4237C30.7413 16.4237 30.8233 16.5077 30.8233 16.5917C30.8233 16.6757 30.7413 16.6757 30.5774 16.7597C30.4134 16.8437 30.2495 16.9277 30.0855 17.1797L29.9216 17.2638C29.8396 17.3478 29.7576 17.4318 29.5936 17.5158C29.4297 17.5998 29.3477 17.6838 29.3477 17.6838L29.2658 17.7678C29.0198 17.9358 28.7739 18.1038 28.6099 18.2718C28.446 18.4398 28.282 18.5238 28.1181 18.6078L27.6262 18.7758C27.5443 18.7758 27.5442 18.7758 27.5442 18.6918C27.6262 18.7758 27.7082 18.5238 27.8722 18.1878ZM48.3664 18.8598C48.3664 18.7758 48.2844 18.6918 48.1205 18.6918C48.0385 18.6918 47.9565 18.7758 47.7926 18.8598L47.7106 19.0278L47.5466 19.1118L47.2187 19.4479C46.8908 19.6999 46.6449 19.7839 46.481 19.8679C46.317 19.9519 46.235 20.1199 46.153 20.2879C45.9891 20.3719 45.9071 20.5399 45.9071 20.7079C45.9071 20.7079 45.9071 20.7079 45.8251 20.7079L45.6612 20.6239H45.5792C45.4972 20.6239 45.4152 20.7079 45.3333 20.8759C45.1693 21.0439 45.0053 21.2119 44.9234 21.2119C44.8414 21.38 44.7594 21.464 44.5954 21.464L44.1856 21.548C44.1036 21.548 44.1036 21.464 44.0216 21.2119L43.7757 20.6239V20.5399C43.7757 20.4559 43.7757 20.4559 43.8577 20.3719C44.0216 20.2039 44.1036 19.8679 44.1036 19.4479V19.1958L44.1856 18.4398V18.3558L44.1036 18.0198V17.7678C44.1036 17.5157 43.9396 17.2638 43.6937 16.8437C43.4478 16.4237 43.0379 16.2557 42.628 16.2557C42.546 16.2557 42.464 16.2557 42.3001 16.3397C42.1361 16.4237 41.9722 16.4237 41.8902 16.5077C41.8082 16.5077 41.7262 16.5917 41.7262 16.5917L41.5623 16.6757L41.3984 16.7597C41.2344 16.9277 41.0704 17.0117 40.9065 17.0117C40.7425 17.0117 40.6606 17.0957 40.5786 17.1797C40.4966 17.2638 40.3326 17.3478 40.0867 17.5158L40.0047 17.6838L39.8408 17.7678C39.7588 17.8518 39.6768 17.8518 39.4309 17.9358C39.185 18.0198 39.021 18.1878 38.9391 18.3558C38.9391 18.4398 38.8571 18.4398 38.7751 18.5238C38.6931 18.6078 38.5291 18.6918 38.4472 18.7758C38.3652 18.8598 38.2832 18.8598 38.2012 18.8598C38.1193 18.8598 38.0373 18.8598 38.0373 18.7758C38.0373 18.6918 38.1193 18.6078 38.2012 18.3558C38.2832 18.1038 38.2832 17.9358 38.2832 17.8518V17.5158C38.2832 17.2637 38.1193 17.0117 37.8734 16.5917C37.6274 16.1717 37.2175 16.0037 36.7257 16.0037C36.5617 16.0037 36.3978 16.1717 36.3158 16.4237C36.2338 16.6757 35.9879 16.8437 35.66 17.0117L35.578 17.1797C35.332 17.1797 35.1681 17.2637 34.9222 17.4317C34.8402 17.5158 34.7582 17.5158 34.7582 17.5998H34.6762C34.5943 17.5998 34.5942 17.5998 34.5123 17.6838C34.4303 17.7678 34.4303 17.7678 34.3483 17.7678C34.2663 17.7678 34.2664 17.8518 34.1844 18.0198C34.0204 18.1038 33.8565 18.2718 33.7745 18.4398L33.6105 18.5238C33.4466 18.6078 33.3646 18.6918 33.3646 18.7758V18.8598C33.3646 18.9438 33.3646 18.9438 33.3646 19.0278C33.3646 19.0278 33.3646 19.1118 33.2826 19.1118C33.2826 19.1118 33.2007 19.1118 33.2007 19.0278C33.2007 18.9438 33.2006 18.9438 33.1187 18.9438C33.1187 18.9438 33.0367 18.9438 32.9547 19.0278C32.8728 19.1118 32.7907 19.1118 32.7088 19.1958C32.5448 19.2799 32.4629 19.3639 32.3809 19.5319C32.2989 19.6159 32.2169 19.6999 32.053 19.6999C31.889 19.6999 31.807 19.7839 31.807 19.8679C31.807 19.9519 31.6431 20.0359 31.4791 20.0359C31.3152 20.1199 31.1512 20.2039 30.9873 20.4559H30.9053H30.7413C30.6594 20.4559 30.5774 20.4559 30.5774 20.5399L30.4954 20.6239C30.4134 20.6239 30.3315 20.7079 30.3315 20.8759L30.1675 20.9599C30.0855 20.9599 29.9216 21.0439 29.7576 21.1279C29.5937 21.2119 29.4297 21.38 29.4297 21.464L29.2658 21.38C29.1838 21.38 29.1018 21.464 29.0198 21.464C28.8558 21.464 28.6919 21.548 28.528 21.632C28.364 21.716 28.2001 21.8 28.0361 21.8L27.3803 21.884C26.8884 21.884 26.6425 21.716 26.6425 21.464C26.6425 21.464 26.6425 21.38 26.7245 21.2119C26.7245 21.0439 26.8065 20.8759 26.8065 20.7919C26.9704 20.7079 27.1344 20.6239 27.2163 20.6239L27.4623 20.3719H27.6262L27.7901 20.2039C27.9541 20.2039 28.0361 20.1199 28.0361 20.0359C28.0361 19.9519 28.0361 19.8679 28.1181 19.7839C28.2 19.7839 28.282 19.8679 28.282 19.8679C28.364 19.8679 28.6099 19.6999 28.9378 19.3639C29.1018 19.3639 29.1838 19.2799 29.2658 19.1958C29.3477 19.1118 29.4297 18.9438 29.5936 18.8598H29.8396C30.0035 18.5238 30.1675 18.3558 30.3315 18.3558H30.4134H30.4954C30.5774 18.3558 30.6594 18.2718 30.7413 18.1878C30.8233 18.1038 30.9053 18.0198 30.9873 18.0198C31.0692 18.0198 31.1512 17.8518 31.3152 17.6838C31.4792 17.6838 31.7251 17.5158 32.053 17.1797C32.3809 16.8437 32.4628 16.5917 32.4628 16.3397C32.4628 16.1717 32.3809 16.0037 32.2169 15.8357C32.053 15.6677 31.889 15.5837 31.6431 15.5837C31.4791 15.5837 31.3152 15.5837 31.2332 15.4997C31.1512 15.4157 31.0692 15.4156 30.9873 15.4156H30.4134C30.2495 15.4156 30.0855 15.4157 29.8396 15.4997C29.6756 15.5837 29.5117 15.5837 29.3477 15.5837L29.1018 15.4997C29.1018 15.4997 29.1018 15.4997 29.0198 15.4997C28.9378 15.5837 28.8559 15.6677 28.6919 15.7517C28.1181 16.0037 27.7082 16.1717 27.5442 16.2557L27.3803 16.5077C27.1343 16.6757 26.9704 16.8437 26.9704 17.0957C26.9704 17.3478 26.8064 17.4317 26.6425 17.4317L26.3146 17.6838C26.1506 17.9358 26.0686 18.1038 26.0686 18.1878L25.7407 18.7758C25.6587 18.9438 25.6588 19.0278 25.5768 19.0278L25.4128 19.7839C25.4128 19.8679 25.3308 19.9519 25.0849 20.1199C24.921 20.2879 24.839 20.5399 24.839 20.9599C24.839 21.128 24.921 21.2119 25.003 21.2119C25.0849 21.2119 25.1669 21.296 25.2489 21.38C25.4948 22.052 25.5768 22.388 25.5768 22.388H25.7407C25.8227 22.808 26.0686 22.976 26.3146 22.976C26.3965 22.976 26.4785 23.0601 26.5605 23.1441C26.6425 23.2281 26.8064 23.228 26.8884 23.228C27.0524 23.228 27.2163 23.2281 27.3803 23.1441L27.6262 23.0601C27.6262 23.0601 27.7082 23.0601 27.7082 23.1441C27.7902 23.2281 27.7902 23.228 27.8722 23.228L28.282 23.1441C28.282 23.1441 28.364 23.1441 28.446 23.0601L29.5936 22.64C29.7576 22.472 29.9216 22.472 30.0035 22.388C30.0855 22.388 30.0855 22.388 30.0855 22.304C30.1675 22.22 30.3315 22.136 30.5774 22.136C30.8233 22.136 30.9053 21.968 30.9873 21.8C31.0692 21.632 31.1512 21.548 31.2332 21.548H31.4791H31.5611C31.6431 21.464 31.807 21.296 32.053 21.2119C32.1349 21.1279 32.1349 21.0439 32.2169 20.9599C32.2169 20.8759 32.2989 20.7919 32.3809 20.7919H32.4628L32.5449 20.8759C32.5449 20.8759 32.6268 20.8759 32.7088 20.7919C32.7907 20.7079 32.8728 20.6239 32.9547 20.5399L33.4466 20.0359C33.5286 19.9519 33.6105 19.8679 33.6925 19.8679C33.7745 19.8679 33.8564 19.7839 33.9384 19.6999C34.0204 19.6999 34.0204 19.6999 34.0204 19.6159L34.1024 19.5319H34.1844C34.2664 19.5319 34.3483 19.4479 34.3483 19.2799C34.4303 19.1959 34.6763 19.1118 35.0042 18.7758H35.2501C35.414 18.5238 35.578 18.3558 35.66 18.3558C35.7419 18.3558 35.9059 18.1878 36.1518 18.0198V18.1038C36.1518 18.1038 36.0698 18.2718 35.9879 18.4398C35.9059 18.6078 35.8239 18.7758 35.8239 18.8598C35.8239 18.9438 35.8239 19.0278 35.7419 19.0278C35.66 19.1118 35.66 19.1118 35.66 19.1958C35.66 19.3639 35.6599 19.4479 35.578 19.4479H35.4141C35.4141 19.4479 35.332 19.5319 35.1681 19.6999C35.0861 19.8679 34.9222 19.9519 34.8402 20.0359C34.7582 20.1199 34.6762 20.2039 34.6762 20.2879V20.3719V20.4559C34.2664 20.5399 34.1024 21.1279 34.1024 22.136C34.1024 22.304 34.1844 22.472 34.2664 22.64C34.3483 22.808 34.5123 22.976 34.5943 22.976C34.6763 22.976 34.7582 23.0601 34.8402 23.0601C34.9222 23.0601 34.9222 23.1441 35.0042 23.1441C35.0861 23.1441 35.1681 23.06 35.332 22.808C35.414 22.808 35.496 22.724 35.66 22.64C35.7419 22.556 35.8239 22.472 35.8239 22.472H35.9879L36.0699 22.388C36.1518 22.22 36.1518 22.22 36.1518 22.22C36.3977 22.22 36.5617 22.136 36.5617 21.968C36.6437 21.632 36.7256 21.548 36.8076 21.548C36.8076 21.548 36.8896 21.632 37.0536 21.716C37.2175 21.548 37.2995 21.38 37.2995 21.38C37.4635 21.296 37.5454 21.2119 37.5454 21.1279C37.5454 20.8759 37.6274 20.7919 37.7094 20.7919C37.7914 20.7919 38.0373 20.6239 38.2832 20.3719C38.5292 20.1199 38.8571 19.8679 39.185 19.5319C39.5129 19.2798 39.6768 19.1118 39.6768 19.0278C39.7588 18.9438 39.8408 18.8598 39.9228 18.8598L40.0047 18.7758C40.1687 18.6918 40.2507 18.6918 40.3327 18.6078C40.4147 18.6078 40.5786 18.6078 40.6606 18.5238C40.7425 18.4398 40.9065 18.3558 41.1524 18.1878H41.2344C41.3164 18.1038 41.3983 18.0198 41.4803 18.0198C41.6443 18.0198 41.7262 18.1038 41.7262 18.2718V18.6078L41.8083 18.9438L41.7262 19.6159C41.7262 19.6159 41.7263 19.6999 41.8083 19.7839C41.8083 19.8679 41.8902 19.8679 41.8902 19.9519C41.8902 20.0359 41.8902 20.0359 41.8083 20.1199C41.8902 20.2879 41.8902 20.3719 41.8902 20.4559C41.8902 20.6239 41.8902 20.7079 41.9722 20.7919C42.0542 20.8759 42.0542 20.9599 42.0542 20.9599C41.9722 21.128 41.8902 21.2119 41.8902 21.2119C41.8902 21.2119 41.8902 21.296 41.9722 21.38C41.9722 21.464 42.0542 21.548 42.0542 21.548C42.0542 21.632 42.2181 21.8 42.3821 22.136C42.5461 22.472 42.71 22.64 42.8739 22.64C43.0379 22.724 43.1199 22.724 43.2838 22.808C43.4478 22.892 43.5298 22.892 43.6118 22.892L43.8577 22.808L44.2676 22.892C44.3495 22.892 44.3496 22.892 44.4315 22.808L44.5954 22.64C44.9233 22.472 45.0873 22.304 45.1693 22.136L45.2513 22.052H45.4972C45.5792 21.968 45.6612 21.884 45.6612 21.8L46.235 21.38C46.317 21.296 46.399 21.2119 46.481 21.2119L46.8908 21.044L47.6286 20.2879C47.8745 20.0359 48.0385 19.8679 48.1205 19.6999C48.2025 19.5319 48.2844 19.4479 48.2844 19.2799L48.2025 18.8598H48.3664Z" fill="white"/>
<path d="M90.0108 19.2801C89.1091 20.4562 88.6992 20.9602 88.7812 20.7922C88.3713 21.0442 87.9614 21.2962 87.4696 21.3803C86.8957 21.2962 86.4038 21.2962 86.0759 21.1282C85.0922 20.4562 84.4364 19.4481 84.1905 18.104C84.0265 17.516 84.0265 16.4239 84.0265 14.9117C83.6986 15.2478 83.2067 15.7518 82.7149 16.5919C82.305 17.2639 81.8951 17.936 81.4852 18.608C80.6654 19.7841 80.0916 20.3722 79.7637 20.2882C79.2719 20.2882 78.9439 19.8681 78.5341 19.0281C78.2881 18.44 78.1242 17.936 78.2061 17.684C78.2061 17.2639 78.5341 16.1718 79.1079 14.3237C79.5998 12.7276 79.9277 11.6355 80.1736 11.0474C80.1736 10.9634 80.1736 10.8794 80.0916 10.7114C80.4196 10.3754 80.7474 10.2074 80.9934 10.2914C81.6492 10.2914 82.0591 11.0474 81.9771 11.6355C81.9771 11.8875 81.8131 12.4755 81.5672 13.3996C81.3213 14.3237 81.1573 15.0797 81.1573 15.6678C81.8951 14.8277 82.7149 13.9037 83.4527 13.0636C84.7643 11.5515 85.666 10.7954 86.1579 10.8794C86.8137 10.9634 87.3876 11.2155 87.9614 11.8035L87.1416 14.9957C86.8137 16.2558 86.6498 17.3479 86.5678 18.188C86.5678 18.356 86.5678 18.608 86.6498 18.9441C86.7318 19.2801 86.8957 19.5321 87.0597 19.5321C87.4696 19.5321 88.1254 19.2801 88.9451 18.692C89.519 18.272 90.0108 17.936 90.5847 17.5159C90.6666 17.5999 90.7486 17.768 90.7486 17.852C90.8306 18.02 90.5847 18.44 90.0108 19.2801Z" fill="white"/>
<path d="M93.29 16.3407C93.208 17.2648 93.208 17.9369 93.3719 18.3569C93.5359 19.197 93.9457 19.701 94.6835 19.701C94.7655 19.701 95.0935 19.617 95.6673 19.449C96.4051 19.197 96.897 19.113 96.897 19.029C97.5528 18.7769 97.5528 19.029 96.897 19.701C96.5691 20.0371 96.1592 20.3731 95.7493 20.5411C95.3394 20.7092 94.6016 20.8772 93.6179 20.8772C92.3062 20.4571 91.8964 20.0371 91.4045 19.197C91.1586 18.6089 90.9946 18.2729 90.9946 18.1049C90.9946 17.8529 90.9126 17.5168 90.9126 16.9287L91.0766 14.9966C91.1585 13.5684 91.5684 11.8882 92.0603 9.78802C92.6341 7.6878 93.4539 4.99954 94.6835 1.6392C94.8475 1.55519 95.0935 1.21915 95.5854 0.631087C95.7493 0.631087 96.2412 0.547079 96.4051 0.631087C96.5691 0.631087 96.8969 1.05114 97.1428 1.13514C97.3888 0.799109 97.6347 0.883128 97.8807 1.30317C94.9295 7.60382 93.4539 12.6443 93.29 16.3407Z" fill="white"/>
<path d="M76.4027 18.6083C76.4027 19.6164 75.5829 20.4564 74.5992 20.4564C73.6154 20.4564 72.7957 19.6164 72.7957 18.6083C72.7957 17.6003 73.6154 16.7603 74.5992 16.7603C75.5829 16.7603 76.4027 17.5163 76.4027 18.6083Z" fill="white"/>
</svg>
