<svg width="323" height="113" viewBox="0 0 323 113" fill="none" xmlns="http://www.w3.org/2000/svg">
<path d="M53.8481 32.5405C57.4225 36.8113 59.2119 42.5917 59.2164 49.8816V82.1243H37.4391V52.6649C37.4391 50.0204 36.7339 47.9357 35.3235 46.4107C34.6021 45.639 33.7222 45.0325 32.7441 44.6331C31.7661 44.2337 30.7132 44.0507 29.6578 44.0968C28.5922 44.0414 27.5275 44.2212 26.5392 44.6234C25.5509 45.0255 24.6632 45.6403 23.9391 46.4239C22.564 47.971 21.8764 50.0557 21.8764 52.6781V82.1243H0V26.5904H21.8764V35.0329C23.6079 32.3774 25.9553 30.1796 28.719 28.6266C31.8421 26.9187 35.3616 26.0678 38.92 26.1607C45.2888 26.1607 50.2648 28.2873 53.8481 32.5405Z" fill="#006039"/>
<path d="M208.854 32.2629C212.759 36.5337 214.714 42.3141 214.718 49.604V81.8269H192.941V52.3741C192.941 50.0073 192.236 48.1518 190.825 46.8075C189.28 45.4085 187.241 44.6808 185.159 44.7845C182.726 44.7845 180.82 45.4588 179.441 46.8075C178.061 48.1562 177.374 50.0117 177.378 52.3741V81.8336H155.601V52.3741C155.601 50.0073 154.893 48.1518 153.479 46.8075C152.714 46.115 151.821 45.5799 150.85 45.2328C149.879 44.8857 148.849 44.7333 147.819 44.7845C145.386 44.7845 143.48 45.4588 142.101 46.8075C140.726 48.1297 140.031 50.0073 140.031 52.3741L140.607 109.131H118.261L118.162 26.26H140.031V33.7438C141.667 31.3266 143.886 29.3618 146.484 28.0318C149.458 26.5279 152.758 25.783 156.09 25.8633C159.808 25.8018 163.477 26.7135 166.734 28.5078C169.815 30.2421 172.369 32.7779 174.125 35.8462C176.18 32.9386 178.833 30.5041 181.907 28.7061C185.071 26.8113 188.697 25.8275 192.385 25.8633C199.437 25.8633 204.927 27.9965 208.854 32.2629Z" fill="#006039"/>
<path d="M221.521 18.7692C220.412 17.8233 219.527 16.6428 218.93 15.3131C218.333 13.9834 218.039 12.5376 218.07 11.0804C218.035 9.60134 218.326 8.13274 218.922 6.77881C219.519 5.42488 220.406 4.2188 221.521 3.24615C223.817 1.17906 226.871 0.145508 230.684 0.145508C234.426 0.145508 237.447 1.17906 239.748 3.24615C240.86 4.2203 241.745 5.42682 242.341 6.78051C242.936 8.1342 243.226 9.60205 243.192 11.0804C243.222 12.537 242.929 13.9821 242.333 15.3116C241.738 16.6412 240.855 17.8221 239.748 18.7692C237.447 20.8054 234.426 21.8236 230.684 21.8236C226.871 21.8236 223.817 20.8054 221.521 18.7692ZM241.52 26.2531V81.8267H219.643V26.2531H241.52Z" fill="#006039"/>
<path d="M278.1 29.0696C281.116 27.19 284.594 26.1831 288.149 26.1606V49.5113H281.941C277.811 49.5113 274.774 50.2342 272.83 51.6798C270.887 53.1254 269.917 55.6884 269.922 59.3686V82.1243H248.052V26.5904H269.922V36.8377C272.06 33.6926 274.849 31.0435 278.1 29.0696Z" fill="#006039"/>
<path d="M296.538 19.3713C295.429 18.4267 294.544 17.2474 293.947 15.9187C293.35 14.5901 293.057 13.1453 293.087 11.6891C293.052 10.21 293.343 8.74141 293.94 7.38748C294.536 6.03355 295.423 4.82747 296.538 3.85483C298.839 1.78773 301.893 0.75198 305.701 0.747573C309.509 0.743165 312.53 1.77892 314.765 3.85483C315.88 4.82747 316.767 6.03355 317.363 7.38748C317.96 8.74141 318.251 10.21 318.216 11.6891C318.246 13.1453 317.952 14.5901 317.355 15.9187C316.758 17.2474 315.874 18.4267 314.765 19.3713C312.464 21.4075 309.443 22.4256 305.701 22.4256C301.959 22.4256 298.905 21.4075 296.538 19.3713ZM316.537 26.8617V82.4287H294.667V26.8948L316.537 26.8617Z" fill="#006039"/>
<path d="M76.6901 58.7273C80.7559 55.9903 93.1188 51.0451 92.504 45.3066C92.3255 43.0985 90.9107 41.3399 85.9655 41.7763C79.6981 42.3052 75.4604 47.3363 73.1597 44.1563C70.859 40.9763 75.3678 34.2395 87.4663 32.5867C99.5648 30.9339 109.191 35.3238 109.191 48.9296C109.191 62.4362 109.277 72.1546 109.277 75.328C109.277 78.6336 111.577 80.4517 116.165 75.685L117.051 76.2999C117.051 76.2999 111.663 82.3954 106.011 82.3954C100.358 82.3954 101.065 76.6569 101.065 71.7117C97.6211 74.7132 90.1174 82.2896 79.4337 82.2169C73.953 82.2169 69.0079 80.1013 68.0426 74.6272C66.8063 67.1169 71.5796 62.2908 76.6901 58.7273ZM77.133 73.0339C79.0767 77.9791 86.3887 78.865 91.0892 76.6569C94.3551 75.2421 98.8573 72.4191 101.065 70.2969V48.837C101.065 37.4459 95.7765 33.823 90.3818 33.9156C85.7871 34.0015 81.9063 36.2096 80.313 38.8607C79.6982 39.8326 80.9344 40.097 82.0782 40.0045C87.8233 39.3896 93.1188 40.54 93.6477 44.9496C94.0907 48.3081 92.4114 52.2814 85.4367 57.5836C78.4619 62.8858 75.1959 68.0028 77.1396 73.0339H77.133Z" fill="white"/>
<path d="M161.826 100.434H163.492C163.254 98.39 161.714 96.78 159.18 96.78C156.296 96.78 154.476 98.978 154.476 101.988C154.476 105.012 156.296 107.21 159.18 107.21C161.728 107.21 163.268 105.6 163.492 103.346H161.826C161.714 104.564 161 105.782 159.138 105.782C156.982 105.782 156.128 103.976 156.128 101.988C156.128 100.014 156.982 98.208 159.138 98.208C160.986 98.208 161.644 99.426 161.826 100.434ZM167.973 99.678C167.035 99.678 166.447 100.294 166.069 101.19H166.041V99.846H164.571V107H166.041V103.346C166.041 101.82 167.175 100.868 168.589 101.106H168.617V99.72C168.407 99.692 168.225 99.678 167.973 99.678ZM172.493 106.006C171.191 106.006 170.421 105.012 170.421 103.808H175.909C175.909 101.26 174.775 99.65 172.465 99.65C170.309 99.65 168.951 101.106 168.951 103.43C168.951 105.67 170.309 107.21 172.535 107.21C174.369 107.21 175.433 106.174 175.797 104.816H174.327C174.201 105.25 173.711 106.006 172.493 106.006ZM172.465 100.812C173.655 100.812 174.439 101.61 174.439 102.716H170.421C170.421 101.61 171.275 100.812 172.465 100.812ZM181.243 101.722C181.243 102.408 180.571 102.548 179.465 102.758C177.673 103.108 176.511 103.598 176.511 105.166C176.511 106.37 177.407 107.21 178.863 107.21C179.969 107.21 180.781 106.776 181.229 106.146H181.257C181.397 106.846 181.761 107.126 182.545 107.126C182.825 107.126 183.063 107.098 183.399 106.972V106.272C182.825 106.328 182.713 106.062 182.713 105.558V102.156C182.713 100.252 181.537 99.65 179.955 99.65C177.799 99.65 176.917 100.728 176.847 102.1H178.275C178.345 101.176 178.779 100.812 179.955 100.812C180.935 100.812 181.243 101.204 181.243 101.722ZM179.185 106.048C178.387 106.048 177.995 105.684 177.995 105.026C177.995 104.298 178.527 103.948 179.745 103.682C180.431 103.542 181.005 103.374 181.243 103.206V104.284C181.243 105.446 180.403 106.048 179.185 106.048ZM187.538 101.05V99.846H186.194V97.592H184.71V99.846H183.674V101.05H184.71V105.054C184.71 106.566 185.354 107.098 186.53 107.098C186.922 107.098 187.244 107.056 187.538 106.986V105.782C186.586 105.838 186.194 105.74 186.194 104.928V101.05H187.538ZM189.432 98.642C189.866 98.642 190.272 98.362 190.272 97.858C190.272 97.354 189.866 97.088 189.432 97.088C189.026 97.088 188.606 97.354 188.606 97.858C188.606 98.362 189.026 98.642 189.432 98.642ZM188.704 99.846V107H190.174V99.846H188.704ZM195.519 99.65C194.287 99.65 193.545 100.21 193.167 100.77H193.139V99.846H191.669V107H193.139V102.646C193.139 101.582 193.867 100.896 195.001 100.896C196.009 100.896 196.415 101.512 196.415 102.478V107H197.899V102.058C197.899 100.42 196.849 99.65 195.519 99.65ZM204.199 99.846V100.686H204.171C203.793 100.182 203.135 99.65 202.001 99.65C200.209 99.65 198.865 100.882 198.865 103.15C198.865 105.404 200.209 106.65 202.001 106.65C203.135 106.65 203.793 106.118 204.171 105.586H204.199V106.454C204.199 107.742 203.569 108.302 202.337 108.302C201.175 108.302 200.671 107.826 200.531 107.196H199.047C199.201 108.4 200.335 109.478 202.393 109.478C204.423 109.478 205.669 108.568 205.669 106.51V99.846H204.199ZM202.281 105.446C200.993 105.446 200.335 104.466 200.335 103.15C200.335 101.82 200.993 100.854 202.281 100.854C203.471 100.854 204.185 101.638 204.185 103.15C204.185 104.662 203.471 105.446 202.281 105.446ZM212.515 107H214.181V98.404H217.373V96.99H209.309V98.404H212.515V107ZM219.182 98.642C219.616 98.642 220.022 98.362 220.022 97.858C220.022 97.354 219.616 97.088 219.182 97.088C218.776 97.088 218.356 97.354 218.356 97.858C218.356 98.362 218.776 98.642 219.182 98.642ZM218.454 99.846V107H219.924V99.846H218.454ZM229.315 99.65C228.209 99.65 227.509 100.196 226.977 100.882H226.949C226.655 100.112 226.053 99.65 225.045 99.65C223.967 99.65 223.295 100.21 222.917 100.77H222.889V99.846H221.419V107H222.889V102.646C222.889 101.582 223.519 100.896 224.499 100.896C225.521 100.896 225.717 101.512 225.717 102.478V107H227.201V102.646C227.201 101.582 227.817 100.896 228.811 100.896C229.819 100.896 230.015 101.512 230.015 102.478V107H231.499V102.058C231.499 100.518 230.757 99.65 229.315 99.65ZM236.026 106.006C234.724 106.006 233.954 105.012 233.954 103.808H239.442C239.442 101.26 238.308 99.65 235.998 99.65C233.842 99.65 232.484 101.106 232.484 103.43C232.484 105.67 233.842 107.21 236.068 107.21C237.902 107.21 238.966 106.174 239.33 104.816H237.86C237.734 105.25 237.244 106.006 236.026 106.006ZM235.998 100.812C237.188 100.812 237.972 101.61 237.972 102.716H233.954C233.954 101.61 234.808 100.812 235.998 100.812ZM240.478 96.99V107H241.962V96.99H240.478ZM246.553 106.006C245.251 106.006 244.481 105.012 244.481 103.808H249.969C249.969 101.26 248.835 99.65 246.525 99.65C244.369 99.65 243.011 101.106 243.011 103.43C243.011 105.67 244.369 107.21 246.595 107.21C248.429 107.21 249.493 106.174 249.857 104.816H248.387C248.261 105.25 247.771 106.006 246.553 106.006ZM246.525 100.812C247.715 100.812 248.499 101.61 248.499 102.716H244.481C244.481 101.61 245.335 100.812 246.525 100.812ZM254.071 102.674C253.035 102.436 252.237 102.38 252.237 101.652C252.237 101.148 252.713 100.812 253.595 100.812C254.743 100.812 255.023 101.386 255.121 101.946H256.549C256.451 100.7 255.527 99.65 253.581 99.65C251.789 99.65 250.753 100.588 250.753 101.764C250.753 103.388 252.293 103.612 253.427 103.878C254.477 104.13 255.331 104.2 255.331 105.096C255.331 105.544 254.897 106.048 253.875 106.048C252.363 106.048 252.027 105.39 251.957 104.62H250.529C250.599 106.132 251.593 107.21 253.903 107.21C255.639 107.21 256.815 106.356 256.815 104.984C256.815 103.276 255.387 102.982 254.071 102.674ZM260.921 102.674C259.885 102.436 259.087 102.38 259.087 101.652C259.087 101.148 259.563 100.812 260.445 100.812C261.593 100.812 261.873 101.386 261.971 101.946H263.399C263.301 100.7 262.377 99.65 260.431 99.65C258.639 99.65 257.603 100.588 257.603 101.764C257.603 103.388 259.143 103.612 260.277 103.878C261.327 104.13 262.181 104.2 262.181 105.096C262.181 105.544 261.747 106.048 260.725 106.048C259.213 106.048 258.877 105.39 258.807 104.62H257.379C257.449 106.132 258.443 107.21 260.753 107.21C262.489 107.21 263.665 106.356 263.665 104.984C263.665 103.276 262.237 102.982 260.921 102.674ZM275.015 99.51C275.015 97.9 273.825 96.99 271.767 96.99H267.469V107H272.005C274.077 107 275.407 106.006 275.407 104.074C275.407 102.576 274.511 101.806 273.461 101.624V101.596C274.287 101.316 275.015 100.742 275.015 99.51ZM269.135 101.134V98.404H271.809C272.803 98.404 273.349 98.894 273.349 99.776C273.349 100.658 272.901 101.134 271.711 101.134H269.135ZM269.135 102.38H272.061C273.111 102.38 273.741 102.954 273.741 103.976C273.741 104.914 273.307 105.586 271.879 105.586H269.135V102.38ZM279.864 99.678C278.926 99.678 278.338 100.294 277.96 101.19H277.932V99.846H276.462V107H277.932V103.346C277.932 101.82 279.066 100.868 280.48 101.106H280.508V99.72C280.298 99.692 280.116 99.678 279.864 99.678ZM285.532 101.722C285.532 102.408 284.86 102.548 283.754 102.758C281.962 103.108 280.8 103.598 280.8 105.166C280.8 106.37 281.696 107.21 283.152 107.21C284.258 107.21 285.07 106.776 285.518 106.146H285.546C285.686 106.846 286.05 107.126 286.834 107.126C287.114 107.126 287.352 107.098 287.688 106.972V106.272C287.114 106.328 287.002 106.062 287.002 105.558V102.156C287.002 100.252 285.826 99.65 284.244 99.65C282.088 99.65 281.206 100.728 281.136 102.1H282.564C282.634 101.176 283.068 100.812 284.244 100.812C285.224 100.812 285.532 101.204 285.532 101.722ZM283.474 106.048C282.676 106.048 282.284 105.684 282.284 105.026C282.284 104.298 282.816 103.948 284.034 103.682C284.72 103.542 285.294 103.374 285.532 103.206V104.284C285.532 105.446 284.692 106.048 283.474 106.048ZM292.398 99.65C291.166 99.65 290.424 100.21 290.046 100.77H290.018V99.846H288.548V107H290.018V102.646C290.018 101.582 290.746 100.896 291.88 100.896C292.888 100.896 293.294 101.512 293.294 102.478V107H294.778V102.058C294.778 100.42 293.728 99.65 292.398 99.65ZM301.148 96.99V100.714H301.12C300.742 100.168 300.042 99.65 298.936 99.65C297.102 99.65 295.744 101.078 295.744 103.43C295.744 105.782 297.102 107.21 298.936 107.21C300.042 107.21 300.742 106.664 301.12 106.174H301.148V107H302.618V96.99H301.148ZM299.188 106.006C297.9 106.006 297.214 104.83 297.214 103.43C297.214 102.03 297.9 100.854 299.188 100.854C300.392 100.854 301.134 101.834 301.134 103.43C301.134 105.012 300.392 106.006 299.188 106.006ZM307.118 102.674C306.082 102.436 305.284 102.38 305.284 101.652C305.284 101.148 305.76 100.812 306.642 100.812C307.79 100.812 308.07 101.386 308.168 101.946H309.596C309.498 100.7 308.574 99.65 306.628 99.65C304.836 99.65 303.8 100.588 303.8 101.764C303.8 103.388 305.34 103.612 306.474 103.878C307.524 104.13 308.378 104.2 308.378 105.096C308.378 105.544 307.944 106.048 306.922 106.048C305.41 106.048 305.074 105.39 305.004 104.62H303.576C303.646 106.132 304.64 107.21 306.95 107.21C308.686 107.21 309.862 106.356 309.862 104.984C309.862 103.276 308.434 102.982 307.118 102.674Z" fill="#006039"/>
</svg>
