<svg width="40" height="47" viewBox="0 0 40 47" fill="none" xmlns="http://www.w3.org/2000/svg">
<g filter="url(#filter0_d_116_61)">
<rect x="4" y="7" width="32" height="32" rx="5" fill="#006039"/>
<path d="M11.1417 29.5006C11.4811 31.4137 13.2091 32.1543 15.1223 32.1543C18.856 32.1851 21.4789 29.5314 22.6823 28.4823C22.6823 30.2103 22.4354 32.216 24.4103 32.216C26.3851 32.216 28.2674 30.0869 28.2674 30.0869L27.9589 29.8709C26.3543 31.5371 25.552 30.8891 25.552 29.7474C25.552 28.6366 25.5211 25.2423 25.5211 20.5211C25.5211 15.7691 22.1577 14.1954 17.9303 14.8126C13.7029 15.3989 12.0983 17.7131 12.9314 18.8549C13.7337 19.9657 15.2149 18.2069 17.4057 18.0217C19.1337 17.8674 19.6274 18.4846 19.6891 19.256C19.9051 21.2617 15.5851 22.9897 14.1657 23.9463C12.376 25.1806 10.7097 26.8777 11.1417 29.5006ZM17.2206 23.5451C19.6583 21.6937 20.2446 20.3051 20.0903 19.1326C19.9051 17.5897 18.0537 17.1886 16.048 17.4046C15.6469 17.4354 15.2149 17.3429 15.4309 17.0034C15.9863 16.0777 17.344 15.3063 18.9486 15.2754C20.8309 15.2446 22.6823 16.5097 22.6823 20.4903V27.9886C21.9109 28.7291 20.3371 29.7166 19.1954 30.2103C17.56 30.9817 14.9989 30.6731 14.32 28.9451C13.6411 27.1863 14.7829 25.3966 17.2206 23.5451Z" fill="#FFCC1D"/>
<path d="M24.6904 26.3369C24.66 26.3268 24.6329 26.3262 24.5962 26.335C24.5666 26.342 24.542 26.3525 24.5138 26.37C24.3451 26.4753 24.2175 26.7412 24.2361 26.9497C24.2386 26.9781 24.248 27.0193 24.2573 27.0427C24.2876 27.1196 24.3495 27.1605 24.4239 27.1529C24.5002 27.145 24.5827 27.0902 24.6582 26.9972C24.6775 26.9732 24.7276 26.8928 24.7408 26.8641C24.796 26.7445 24.8194 26.6318 24.8101 26.5302C24.8077 26.5049 24.798 26.4631 24.7895 26.441C24.7814 26.4206 24.7621 26.3887 24.7497 26.3756C24.7388 26.3639 24.7045 26.3416 24.6904 26.3369Z" fill="#A37E2C"/>
<path d="M25.2957 26.7515C25.2404 26.7309 25.1655 26.7371 25.0875 26.7685C24.9872 26.8088 24.8902 26.8838 24.8102 26.983C24.7847 27.0146 24.7383 27.0916 24.724 27.1257C24.6916 27.2035 24.682 27.2724 24.6959 27.3294C24.7076 27.3785 24.7371 27.416 24.7787 27.4352C24.8781 27.4803 25.0309 27.4352 25.1681 27.3203C25.2819 27.225 25.3636 27.1012 25.3895 26.9846C25.4148 26.8709 25.379 26.7822 25.2957 26.7515Z" fill="#A37E2C"/>
<path d="M23.9524 26.6427C23.881 26.6133 23.7999 26.6357 23.7268 26.7055C23.685 26.7457 23.6428 26.8106 23.6172 26.8747C23.5572 27.0237 23.5594 27.1958 23.6225 27.3005C23.6549 27.3539 23.6995 27.3871 23.7504 27.3951C23.8253 27.4069 23.9039 27.3667 23.9745 27.2803C23.9886 27.2629 24.023 27.2068 24.0337 27.1832C24.1203 26.9954 24.1065 26.7755 24.0021 26.6764C23.9898 26.6648 23.9653 26.6483 23.9524 26.6427Z" fill="#A37E2C"/>
<path d="M25.221 27.5963C25.1562 27.5735 25.0755 27.5794 24.9908 27.6132C24.8987 27.65 24.8106 27.7176 24.7462 27.8006C24.7295 27.8222 24.6994 27.8724 24.6885 27.8966C24.6157 28.0592 24.6738 28.1942 24.8232 28.2105C24.9034 28.2191 24.9967 28.193 25.0863 28.137C25.256 28.0311 25.3606 27.8492 25.3283 27.7156C25.3147 27.6592 25.2753 27.6154 25.221 27.5963Z" fill="#A37E2C"/>
<path d="M24.3571 27.4563C24.2404 27.4106 24.04 27.4399 23.8203 27.5345C23.6484 27.6087 23.4975 27.7095 23.4099 27.8089C23.389 27.8328 23.3593 27.8802 23.3522 27.901C23.3413 27.9335 23.3408 27.959 23.35 27.9919C23.3654 28.0466 23.3963 28.0922 23.4453 28.1324C23.4708 28.1533 23.528 28.1863 23.5671 28.2028C23.6195 28.2246 23.6658 28.2396 23.7722 28.2689C23.8751 28.2974 23.9028 28.3071 23.926 28.3235C23.9554 28.3443 23.9739 28.3659 24.0222 28.4355C24.0568 28.4853 24.0772 28.5113 24.0964 28.5307C24.1682 28.6027 24.2553 28.6195 24.3768 28.585C24.413 28.5748 24.4266 28.5675 24.4488 28.5467C24.4613 28.5347 24.4636 28.5317 24.4841 28.4982C24.5027 28.4678 24.5075 28.4589 24.515 28.4395C24.5612 28.3219 24.5838 28.1596 24.5779 27.9883C24.5707 27.7847 24.5221 27.6113 24.4471 27.5228C24.4199 27.4906 24.3923 27.4702 24.3571 27.4563Z" fill="#A37E2C"/>
<path d="M12.6904 26.3369C12.66 26.3268 12.6329 26.3262 12.5962 26.335C12.5666 26.342 12.542 26.3525 12.5138 26.37C12.3451 26.4753 12.2175 26.7412 12.2361 26.9497C12.2386 26.9781 12.248 27.0193 12.2573 27.0427C12.2876 27.1196 12.3495 27.1605 12.4239 27.1529C12.5002 27.145 12.5827 27.0902 12.6582 26.9972C12.6775 26.9732 12.7276 26.8928 12.7408 26.8641C12.796 26.7445 12.8194 26.6318 12.8101 26.5302C12.8077 26.5049 12.798 26.4631 12.7895 26.441C12.7814 26.4206 12.7621 26.3887 12.7497 26.3756C12.7388 26.3639 12.7045 26.3416 12.6904 26.3369Z" fill="white"/>
<path d="M13.2957 26.7515C13.2404 26.7309 13.1655 26.7371 13.0875 26.7685C12.9872 26.8088 12.8902 26.8838 12.8102 26.983C12.7847 27.0146 12.7383 27.0916 12.724 27.1257C12.6916 27.2035 12.682 27.2724 12.6959 27.3294C12.7076 27.3785 12.7371 27.416 12.7787 27.4352C12.8781 27.4803 13.0309 27.4352 13.1681 27.3203C13.2819 27.225 13.3636 27.1012 13.3895 26.9846C13.4148 26.8709 13.379 26.7822 13.2957 26.7515Z" fill="white"/>
<path d="M11.9524 26.6427C11.881 26.6133 11.7999 26.6357 11.7268 26.7055C11.685 26.7457 11.6428 26.8106 11.6172 26.8747C11.5572 27.0237 11.5594 27.1958 11.6225 27.3005C11.6549 27.3539 11.6995 27.3871 11.7504 27.3951C11.8253 27.4069 11.9039 27.3667 11.9745 27.2803C11.9886 27.2629 12.023 27.2068 12.0337 27.1832C12.1203 26.9954 12.1065 26.7755 12.0021 26.6764C11.9898 26.6648 11.9653 26.6483 11.9524 26.6427Z" fill="white"/>
<path d="M13.221 27.5963C13.1562 27.5735 13.0755 27.5794 12.9908 27.6132C12.8987 27.65 12.8106 27.7176 12.7462 27.8006C12.7295 27.8222 12.6994 27.8724 12.6885 27.8966C12.6157 28.0592 12.6738 28.1942 12.8232 28.2105C12.9034 28.2191 12.9967 28.193 13.0863 28.137C13.256 28.0311 13.3606 27.8492 13.3283 27.7156C13.3147 27.6592 13.2753 27.6154 13.221 27.5963Z" fill="white"/>
<path d="M12.3571 27.4563C12.2404 27.4106 12.04 27.4399 11.8203 27.5345C11.6484 27.6087 11.4975 27.7095 11.4099 27.8089C11.389 27.8328 11.3593 27.8802 11.3522 27.901C11.3413 27.9335 11.3408 27.959 11.35 27.9919C11.3654 28.0466 11.3963 28.0922 11.4453 28.1324C11.4708 28.1533 11.528 28.1863 11.5671 28.2028C11.6195 28.2246 11.6658 28.2396 11.7722 28.2689C11.8751 28.2974 11.9028 28.3071 11.926 28.3235C11.9554 28.3443 11.9739 28.3659 12.0222 28.4355C12.0568 28.4853 12.0772 28.5113 12.0964 28.5307C12.1682 28.6027 12.2553 28.6195 12.3768 28.585C12.413 28.5748 12.4266 28.5675 12.4488 28.5467C12.4613 28.5347 12.4636 28.5317 12.4841 28.4982C12.5027 28.4678 12.5075 28.4589 12.515 28.4395C12.5612 28.3219 12.5838 28.1596 12.5779 27.9883C12.5707 27.7847 12.5221 27.6113 12.4471 27.5228C12.4199 27.4906 12.3923 27.4702 12.3571 27.4563Z" fill="white"/>
</g>
<defs>
<filter id="filter0_d_116_61" x="0" y="7" width="40" height="40" filterUnits="userSpaceOnUse" color-interpolation-filters="sRGB">
<feFlood flood-opacity="0" result="BackgroundImageFix"/>
<feColorMatrix in="SourceAlpha" type="matrix" values="0 0 0 0 0 0 0 0 0 0 0 0 0 0 0 0 0 0 127 0" result="hardAlpha"/>
<feOffset dy="4"/>
<feGaussianBlur stdDeviation="2"/>
<feComposite in2="hardAlpha" operator="out"/>
<feColorMatrix type="matrix" values="0 0 0 0 0 0 0 0 0 0 0 0 0 0 0 0 0 0 0.25 0"/>
<feBlend mode="normal" in2="BackgroundImageFix" result="effect1_dropShadow_116_61"/>
<feBlend mode="normal" in="SourceGraphic" in2="effect1_dropShadow_116_61" result="shape"/>
</filter>
</defs>
</svg>
